<svg width="1235" height="562" viewBox="0 0 1235 562" fill="none" xmlns="http://www.w3.org/2000/svg">
    <path d="M473.54 205.3H535.996C551.329 205.3 563.496 208.746 572.499 215.639C581.502 222.391 585.018 232.097 583.049 244.757C580.658 260.371 571.514 270.64 555.619 275.563C563.215 277.814 569.264 282.104 573.765 288.434C578.266 294.764 579.673 303.134 577.985 313.543C573.906 339.848 552.665 353 514.263 353H450.119L473.54 205.3ZM547.39 308.479C548.375 303.415 547.812 299.406 545.702 296.452C543.592 293.498 540.849 291.599 537.473 290.755C534.238 289.77 530.299 289.278 525.657 289.278H491.686L485.778 327.258H516.795C534.941 327.258 545.139 320.998 547.39 308.479ZM551.188 248.344C552.173 242.436 550.977 238.146 547.601 235.473C544.366 232.66 539.161 231.253 531.987 231.253H500.97L495.695 265.013H526.923C533.394 265.013 538.809 263.606 543.17 260.793C547.531 257.839 550.203 253.689 551.188 248.344ZM618.215 222.391L648.388 215.217L642.691 251.72H674.763L670.754 276.407H638.682L632.141 316.919C631.297 322.124 631.93 325.851 634.04 328.102C636.15 330.212 639.948 331.267 645.434 331.267C652.467 331.267 659.008 330.001 665.057 327.469L661.259 351.523C654.507 354.477 645.715 355.954 634.884 355.954C624.193 355.954 615.683 353.07 609.353 347.303C603.023 341.395 600.772 332.603 602.601 320.928L609.564 276.407H592.473L596.482 251.72H613.362L618.215 222.391ZM791.665 304.892C789.133 321.069 781.748 333.658 769.51 342.661C757.272 351.523 743.768 355.954 728.998 355.954C713.244 355.954 700.513 350.96 690.807 340.973C681.242 330.845 677.796 317.13 680.468 299.828C683.141 283.511 690.456 270.921 702.412 262.059C714.51 253.197 728.225 248.766 743.557 248.766C758.749 248.766 771.269 253.83 781.115 263.958C790.962 274.086 794.479 287.731 791.665 304.892ZM709.586 302.782C708.461 310.519 709.727 316.989 713.384 322.194C717.182 327.258 723.161 329.79 731.319 329.79C739.478 329.79 746.371 327.258 751.997 322.194C757.624 316.989 761.141 310.237 762.547 301.938C763.673 294.201 762.407 287.801 758.749 282.737C755.092 277.532 749.254 274.93 741.236 274.93C732.937 274.93 725.904 277.532 720.136 282.737C714.51 287.801 710.993 294.483 709.586 302.782ZM827.699 198.97H857.028L832.552 353H803.223L827.699 198.97ZM860.148 300.25C861.414 291.529 864.087 283.792 868.166 277.04C872.245 270.147 877.028 264.732 882.514 260.793C888.141 256.854 893.978 253.9 900.027 251.931C906.216 249.821 912.406 248.766 918.595 248.766C926.472 248.766 933.435 250.032 939.484 252.564C945.533 254.955 950.245 258.261 953.621 262.481C957.138 266.701 959.67 271.554 961.217 277.04C962.905 282.385 963.538 288.082 963.116 294.131C962.694 300.039 961.358 306.017 959.107 312.066H887.578C888 319.099 891.165 324.304 897.073 327.68C903.122 331.056 910.366 332.744 918.806 332.744C931.607 332.744 942.649 330.423 951.933 325.781L948.346 349.624C938.499 353.844 926.261 355.954 911.632 355.954C901.082 355.954 891.657 353.844 883.358 349.624C875.059 345.404 868.658 339.004 864.157 330.423C859.796 321.842 858.46 311.785 860.148 300.25ZM935.897 293.076C937.304 288.012 936.671 283.089 933.998 278.306C931.325 273.523 926.05 271.132 918.173 271.132C911.421 271.132 905.443 273.172 900.238 277.251C895.174 281.33 891.939 286.605 890.532 293.076H935.897ZM999.21 222.391L1029.38 215.217L1023.69 251.72H1055.76L1051.75 276.407H1019.68L1013.14 316.919C1012.29 322.124 1012.93 325.851 1015.04 328.102C1017.15 330.212 1020.94 331.267 1026.43 331.267C1033.46 331.267 1040 330.001 1046.05 327.469L1042.25 351.523C1035.5 354.477 1026.71 355.954 1015.88 355.954C1005.19 355.954 996.678 353.07 990.348 347.303C984.018 341.395 981.768 332.603 983.596 320.928L990.559 276.407H973.468L977.477 251.72H994.357L999.21 222.391Z" fill="black"/>
    <path d="M306.849 386.999C303.379 389.084 300.172 391.305 296.763 393.155C293.039 395.176 289.196 397.016 285.281 398.639C281.148 400.351 276.935 401.943 272.637 403.171C267.377 404.676 262.004 405.8 256.655 406.977C254.978 407.346 253.225 407.427 251.5 407.512C247.313 407.718 243.107 408.153 238.937 407.945C230.037 407.504 221.081 407.111 212.456 404.625C204.241 402.257 196.064 399.657 188.513 395.561C183.241 392.7 177.74 390.021 173.078 386.334C165.221 380.121 157.774 373.428 151.352 365.569C145.122 357.945 140.26 349.58 135.653 341.001C134.713 339.25 134.322 337.214 133.541 335.367C130.673 328.581 129.178 321.456 127.638 314.28C126.662 309.734 125.969 305.273 125.86 300.653C125.749 295.937 125.412 291.226 125.162 286.27C117.982 286.27 110.746 286.355 103.514 286.228C100.716 286.178 97.8821 285.862 95.1445 285.288C90.2002 284.252 87.0621 278.242 88.2525 273.343C89.3501 268.825 92.7967 266.474 96.0108 263.852C100.602 260.106 105.284 256.471 109.919 252.777C114.765 248.915 119.595 245.032 124.443 241.173C129.09 237.474 133.763 233.808 138.403 230.1C142.011 227.216 145.581 224.285 149.175 221.383C153.97 217.51 158.772 213.646 163.571 209.777C167.785 206.379 171.976 202.954 176.216 199.588C180.604 196.105 185.065 192.714 189.444 189.221C193.8 185.746 198.072 182.169 202.421 178.685C206.993 175.022 211.604 171.405 216.215 167.79C221.311 163.795 226.244 159.555 231.595 155.931C235.692 153.157 240.57 152.559 245.545 153.28C252.212 154.248 256.932 158.635 261.933 162.504C267.904 167.122 273.839 171.788 279.722 176.516C284.765 180.568 289.673 184.786 294.713 188.841C299.75 192.892 304.913 196.786 309.954 200.83C317.654 207.006 325.265 213.292 332.973 219.457C340.545 225.515 348.235 231.428 355.792 237.504C363.84 243.974 371.773 250.585 379.802 257.078C381.547 258.49 383.621 259.51 385.303 260.982C388.718 263.971 392.523 266.747 395.138 270.353C397.987 274.282 397.878 280.09 392.618 283.636C389.826 285.518 386.915 286.29 383.651 286.282C375.116 286.261 366.58 286.273 358.045 286.272C357.341 286.271 356.636 286.271 355.667 286.271C355.667 289.276 355.877 292.13 355.627 294.943C354.942 302.646 354.609 310.44 353.121 317.999C351.343 327.04 347.97 335.717 344.068 344.07C341.711 349.117 338.596 353.852 335.465 358.488C333.024 362.102 330.251 365.554 327.237 368.708C322.67 373.486 317.824 378.005 312.975 382.504C311.167 384.182 309.018 385.493 306.849 386.999ZM223.769 337.39C221.766 336.42 219.756 335.466 217.763 334.477C211.651 331.444 206.932 326.775 202.706 321.566C199.315 317.387 196.498 312.707 195.421 307.509C193.983 300.57 193.474 293.44 192.537 286.166C185.809 286.166 178.629 286.166 171.208 286.166C170.467 320.231 184.455 345.567 216.727 357.991C240.713 367.225 264.158 363.204 284.279 346.783C303.18 331.357 311.348 310.859 309.576 286.374C302.28 286.374 295.056 286.374 287.747 286.374C287.895 287.038 288.173 287.639 288.134 288.218C287.863 292.203 287.444 296.179 287.227 300.166C286.863 306.861 284.2 312.786 280.893 318.4C279.21 321.257 277.045 323.988 274.571 326.187C270.986 329.374 267.236 332.348 262.983 334.822C258.316 337.538 253.262 338.692 248.284 340.066C244.941 340.989 241.216 340.619 237.66 340.659C235.785 340.68 233.855 340.55 232.04 340.114C229.339 339.466 226.718 338.486 223.769 337.39Z" fill="black"/>
</svg>