<svg width="451" height="373" viewBox="0 0 451 373" fill="none" xmlns="http://www.w3.org/2000/svg">
    <path d="M319.421 342.281C314.355 345.33 309.675 348.579 304.699 351.286C299.265 354.242 293.655 356.934 287.941 359.307C281.909 361.812 275.76 364.139 269.487 365.937C261.809 368.137 253.967 369.782 246.16 371.503C243.712 372.043 241.153 372.163 238.636 372.287C232.525 372.587 226.386 373.223 220.299 372.92C207.31 372.274 194.238 371.699 181.649 368.063C169.659 364.6 157.725 360.797 146.704 354.804C139.009 350.621 130.98 346.702 124.175 341.309C112.708 332.22 101.838 322.429 92.4652 310.935C83.3717 299.782 76.2761 287.547 69.5518 274.998C68.1791 272.436 67.6093 269.458 66.4697 266.756C62.2832 256.83 60.1011 246.408 57.8531 235.912C56.4286 229.261 55.4173 222.737 55.2585 215.979C55.0964 209.08 54.6048 202.189 54.2396 194.941C43.7595 194.941 33.1986 195.065 22.6432 194.878C18.5601 194.806 14.4234 194.343 10.4277 193.504C3.2113 191.988 -1.36885 183.197 0.36855 176.031C1.97058 169.423 7.00104 165.984 11.6921 162.148C18.3935 156.669 25.2275 151.351 31.992 145.948C39.0652 140.299 46.1142 134.62 53.1905 128.974C59.9727 123.564 66.7937 118.201 73.5651 112.777C78.8313 108.559 84.0422 104.271 89.2872 100.026C96.2864 94.3619 103.296 88.7097 110.299 83.0503C116.449 78.0802 122.567 73.0693 128.755 68.1467C135.16 63.0521 141.671 58.0914 148.063 52.9816C154.42 47.8997 160.656 42.6662 167.002 37.571C173.676 32.2129 180.405 26.9222 187.136 21.6345C194.574 15.7904 201.773 9.58793 209.583 4.28771C215.564 0.229036 222.684 -0.645261 229.944 0.410229C239.676 1.82514 246.564 8.24277 253.864 13.9018C262.578 20.6572 271.241 27.4821 279.828 34.3981C287.187 40.3254 294.351 46.4952 301.708 52.426C309.058 58.3518 316.594 64.0478 323.953 69.9635C335.191 78.9975 346.3 88.1911 357.549 97.2103C368.602 106.072 379.825 114.72 390.856 123.608C402.601 133.072 414.181 142.742 425.899 152.24C428.445 154.305 431.472 155.797 433.928 157.951C438.912 162.323 444.465 166.383 448.282 171.657C452.44 177.404 452.282 185.901 444.604 191.088C440.529 193.841 436.28 194.97 431.516 194.958C419.059 194.928 406.601 194.944 394.143 194.942C393.115 194.942 392.087 194.942 390.673 194.942C390.673 199.337 390.979 203.511 390.614 207.626C389.614 218.894 389.128 230.294 386.957 241.351C384.361 254.576 379.438 267.268 373.744 279.487C370.303 286.87 365.756 293.795 361.186 300.576C357.624 305.863 353.577 310.912 349.177 315.525C342.512 322.514 335.438 329.125 328.361 335.706C325.722 338.16 322.586 340.079 319.421 342.281ZM198.161 269.715C195.238 268.296 192.304 266.901 189.395 265.454C180.475 261.018 173.586 254.188 167.419 246.57C162.47 240.457 158.358 233.611 156.786 226.007C154.687 215.858 153.944 205.428 152.577 194.788C142.757 194.788 132.277 194.788 121.447 194.788C120.364 244.617 140.78 281.677 187.883 299.85C222.892 313.357 257.11 307.476 286.478 283.455C314.066 260.891 325.987 230.908 323.4 195.092C312.752 195.092 302.208 195.092 291.54 195.092C291.756 196.064 292.162 196.942 292.105 197.789C291.709 203.618 291.098 209.434 290.781 215.266C290.25 225.059 286.362 233.726 281.536 241.938C279.08 246.117 275.92 250.112 272.309 253.329C267.077 257.99 261.603 262.341 255.396 265.96C248.584 269.931 241.207 271.619 233.942 273.63C229.063 274.98 223.626 274.438 218.436 274.497C215.699 274.528 212.882 274.338 210.233 273.701C206.291 272.752 202.465 271.318 198.161 269.715Z" fill="white"/>
</svg>