<svg xmlns="http://www.w3.org/2000/svg" version="1.1" xmlns:xlink="http://www.w3.org/1999/xlink" width="512" height="512" x="0" y="0" viewBox="0 0 1000 1000" style="enable-background:new 0 0 512 512" xml:space="preserve" class="">
    <g>
        <path d="M461.69 448.92H145.2a16 16 0 0 1-15.88-18l28.77-233.28a16 16 0 0 1 15.88-14H465.1a16 16 0 0 1 16 16.23l-3.41 233.28a16 16 0 0 1-16 15.77zm-298.4-32h282.64l2.94-201.28H188.11zM863.31 448.91h-48.76a16 16 0 0 1 0-32h30.66l-24.82-201.27H559.64l2.94 201.27h28a16 16 0 0 1 0 32h-43.76a16 16 0 0 1-16-15.76l-3.42-233.28a16 16 0 0 1 16-16.23h291.14a16 16 0 0 1 15.88 14L879.19 431a16 16 0 0 1-15.88 18zM900 816.36H543.66a16 16 0 0 1-16-15.77l-4.28-292.74a16 16 0 0 1 16-16.23h30.11a16 16 0 0 1 0 32h-13.87l3.8 260.74h322.49l-32.16-260.74h-14.14a16 16 0 0 1 0-32h28.29a16 16 0 0 1 15.88 14l36.1 292.74a16 16 0 0 1-15.88 18zM456.34 815.46H100a16 16 0 0 1-15.88-18l36.1-292.75a16 16 0 0 1 15.88-14.01h324.52a16 16 0 0 1 16 16.24l-4.28 292.75a16 16 0 0 1-16 15.77zm-338.25-32h322.48l3.81-260.76H150.25z" fill="#000000" opacity="1" data-original="#000000" class=""></path>
        <path d="M702.55 761.12a16 16 0 0 1-12.5-6c-1.38-1.73-34.14-42.86-67.45-93.77-45.9-70.15-69.17-122.79-69.17-156.45 0-82.22 66.89-149.12 149.12-149.12s149.13 66.9 149.13 149.12c0 33.66-23.28 86.3-69.18 156.45-33.31 50.91-66.07 92-67.44 93.77a16 16 0 0 1-12.51 6zm0-373.35a117.25 117.25 0 0 0-117.12 117.12c0 50.07 75.65 159.74 117.12 214.18C744 664.63 819.68 555 819.68 504.89a117.26 117.26 0 0 0-117.13-117.12z" fill="#000000" opacity="1" data-original="#000000" class=""></path>
        <path d="M702.55 574a73.12 73.12 0 1 1 73.12-73.12A73.21 73.21 0 0 1 702.55 574zm0-114.24a41.12 41.12 0 1 0 41.12 41.12 41.16 41.16 0 0 0-41.12-41.11z" fill="#000000" opacity="1" data-original="#000000" class=""></path>
    </g>
</svg>