<svg xmlns="http://www.w3.org/2000/svg" version="1.1" xmlns:xlink="http://www.w3.org/1999/xlink" width="512" height="512" x="0" y="0" viewBox="0 0 24 24" style="enable-background:new 0 0 512 512" xml:space="preserve">
    <g>
        <path d="m12 19.001 12-7.2V15.3l-12 7.2-12-7.2v-3.499l12 7.2ZM24 9v1.099l-12 7.2-12-7.2V9l12-7.2L24 9ZM12 5.299 9.471 6.816l2.571 1.543 2.529-1.517L12 5.299Zm-7.084 4.25 2.571 1.543 2.611-1.567-2.571-1.543-2.612 1.567ZM12 13.799l2.611-1.567-2.569-1.542-2.611 1.567L12 13.798Zm7.084-4.25-2.57-1.542-2.529 1.518 2.57 1.542 2.529-1.517Z" fill="#000000" opacity="1" data-original="#000000"></path>
    </g>
</svg>