<svg xmlns="http://www.w3.org/2000/svg" version="1.1" xmlns:xlink="http://www.w3.org/1999/xlink" width="512" height="512" x="0" y="0" viewBox="0 0 90 90" style="enable-background:new 0 0 512 512" xml:space="preserve" class="">
    <g>
        <g fill-rule="evenodd" clip-rule="evenodd">
            <path d="M18.456 78.637H71.56v3.406H18.456zm45.572-20.051h7.038l3.656 12.188c.625 2.336-.317 4.02-2.224 5.219h-6.921c.785-1.625 1.13-3.631.708-5.809zm-9.348 0h6.65l2.35 12.057c.416 2.391-.224 4.213-1.267 5.35h-6.812c.531-1.59.751-3.521.49-5.719zm-8.349 0h5.688l1.443 11.988c.249 2.359-.146 4.26-.715 5.418h-6.416zm-8.334 0h5.692v17.406h-6.432c-.563-1.168-.949-3.086-.698-5.418v-.012c0-.004-.005-.004 0-.008zm-9.317 0h6.65l-1.401 11.688c-.24 2.186-.052 4.123.475 5.719h-6.767c-1.066-1.131-1.719-2.934-1.295-5.35zm-9.724 0h7.025l-2.255 11.598c-.422 2.188-.063 4.193.735 5.809h-6.942c-1.901-1.199-2.917-2.902-2.22-5.219zm-.986-6.059h54.079c.969 0 1.697.74 1.697 1.703 0 .969-.728 1.709-1.697 1.709H17.97c-.968 0-1.708-.74-1.708-1.709a1.677 1.677 0 0 1 1.708-1.703zm0-2.64c-2.391 0-4.348 1.957-4.348 4.344 0 1.797 1.109 3.348 2.672 4.01l-3.552 11.828c-.975 3.252.604 6.213 3.066 7.943v5.35a1.326 1.326 0 0 0 1.319 1.334h55.754c.734 0 1.333-.6 1.328-1.334v-5.35c2.458-1.73 4.041-4.691 3.068-7.943L73.726 58.24c1.563-.662 2.673-2.213 2.673-4.01 0-2.387-1.964-4.344-4.35-4.344H17.97zM57.815 13.465a16.943 16.943 0 0 1 4.229 8.969H48.243zm-25.616 0 9.568 8.969H27.97a16.995 16.995 0 0 1 4.229-8.969zm14.132-5.588c3.625.271 6.927 1.623 9.573 3.76l-9.573 8.969zm-2.642 0v12.729l-9.572-8.969c2.646-2.137 5.943-3.489 9.572-3.76zm1.319-2.719c-10.99 0-19.886 8.842-19.886 19.785V44.73c0 1.77 2.65 1.77 2.65 0V25.074h34.474V44.73a1.322 1.322 0 0 0 1.324 1.391c.754 0 1.358-.629 1.317-1.391V24.943C64.888 14 55.997 5.158 45.008 5.158z" fill="#000000" opacity="1" data-original="#000000"></path>
        </g>
    </g>
</svg>