<svg xmlns="http://www.w3.org/2000/svg" version="1.1" xmlns:xlink="http://www.w3.org/1999/xlink" width="512" height="512" x="0" y="0" viewBox="0 0 512 512" style="enable-background:new 0 0 512 512" xml:space="preserve" class="">
    <g>
        <path d="M20.021 345.689v41.259c0 47.682 35.043 87.329 80.727 94.549V512h30.001v-29.325h250.5V512h30.001v-30.503c45.684-7.22 80.727-46.867 80.727-94.549v-41.259H20.021zM50.022 255.639V82.556c0-28.979 23.577-52.555 52.556-52.555 26.838 0 49.026 20.224 52.161 46.23-31.24 7.036-54.651 34.987-54.651 68.321v20.004H240.18v-20.004c0-33.574-23.748-61.692-55.323-68.476C181.536 33.575 145.916 0 102.578 0 57.056 0 20.021 37.034 20.021 82.556v173.083H.006v60.049h511.988v-60.049H50.022z" fill="#000000" opacity="1" data-original="#000000" class=""></path>
    </g>
</svg>