<svg xmlns="http://www.w3.org/2000/svg" version="1.1" xmlns:xlink="http://www.w3.org/1999/xlink" width="512" height="512" x="0" y="0" viewBox="0 0 64 64" style="enable-background:new 0 0 512 512" xml:space="preserve" class="">
    <g>
        <path d="M59 34a3.003 3.003 0 0 0-3-3h-5.184A2.995 2.995 0 0 0 48 29H38a2.995 2.995 0 0 0-2.816 2H11V14a3.003 3.003 0 0 1 3-3h2a2.994 2.994 0 0 1 2.86 2.143A5 5 0 0 0 15 18a1 1 0 0 0 1 1h8a1 1 0 0 0 1-1 5.002 5.002 0 0 0-4.092-4.908A5.002 5.002 0 0 0 16 9h-2a5.006 5.006 0 0 0-5 5v17H8a2.993 2.993 0 0 0-1 5.816V40a11.011 11.011 0 0 0 9.72 10.92l-.75 2.823a1 1 0 1 0 1.933.514L18.769 51H45.23l.866 3.257a1 1 0 0 0 1.933-.514l-.75-2.824A11.011 11.011 0 0 0 57 40v-3.184A2.995 2.995 0 0 0 59 34zM22.829 17H17.17a3 3 0 0 1 5.658 0zM38 31h10a1 1 0 0 1 1 1v9H37v-9a1 1 0 0 1 1-1zM8 33h27v2H8a1 1 0 0 1 0-2zm38 16H18a9.01 9.01 0 0 1-9-9v-3h26v4a2.002 2.002 0 0 0 2 2h12a2.002 2.002 0 0 0 2-2v-4h4v3a9.01 9.01 0 0 1-9 9zm10-14h-5v-2h5a1 1 0 0 1 0 2z" fill="#000000" opacity="1" data-original="#000000" class=""></path>
        <path d="M15 21.044v2a1 1 0 0 0 2 0v-2a1 1 0 0 0-2 0zM19 21.044v2a1 1 0 0 0 2 0v-2a1 1 0 0 0-2 0zM24 20.044a1 1 0 0 0-1 1v2a1 1 0 0 0 2 0v-2a1 1 0 0 0-1-1z" fill="#000000" opacity="1" data-original="#000000" class=""></path>
    </g>
</svg>