<svg width="512" height="512" viewBox="0 0 512 512" fill="none" xmlns="http://www.w3.org/2000/svg">
    <g clip-path="url(#clip0_57_6)">
        <path d="M184 264H274.64C288.453 264.014 301.836 259.203 312.48 250.4L318.32 245.6C328.964 236.797 342.347 231.986 356.16 232H461.92C466.715 232 471.314 233.905 474.704 237.296C478.095 240.686 480 245.285 480 250.08C480.033 253.423 479.11 256.706 477.338 259.541C475.566 262.376 473.02 264.645 470 266.08C465.807 268.002 462.256 271.092 459.773 274.979C457.29 278.867 455.98 283.387 456 288V336C456 355.096 448.414 373.409 434.912 386.912C421.409 400.414 403.096 408 384 408H128C108.904 408 90.5909 400.414 77.0883 386.912C63.5857 373.409 56 355.096 56 336V312C56.0047 307.193 54.5659 302.496 51.8701 298.516C49.1742 294.537 45.3456 291.458 40.88 289.68C38.3239 288.747 36.1089 287.064 34.5246 284.852C32.9403 282.639 32.0604 280 32 277.28C31.9895 275.54 32.3231 273.815 32.9817 272.204C33.6404 270.593 34.611 269.129 35.8378 267.894C37.0646 266.66 38.5233 265.681 40.13 265.012C41.7368 264.344 43.4598 264 45.2 264H88" stroke="#030006" stroke-width="20" stroke-linecap="round" stroke-linejoin="round"/>
        <path d="M112 432L128 408M400 432L384 408M424 232V88C424 81.6348 421.471 75.5303 416.971 71.0294C412.47 66.5286 406.365 64 400 64H368C361.635 64 355.53 66.5286 351.029 71.0294C346.529 75.5303 344 81.6348 344 88M344 88L328 104H360L344 88ZM328 136V144M360 136V144M312 168V176M376 168V176M344 168V176M104 240H168C172.243 240 176.313 241.686 179.314 244.686C182.314 247.687 184 251.757 184 256V328H88V256C88 251.757 89.6857 247.687 92.6863 244.686C95.6869 241.686 99.7565 240 104 240Z" stroke="#030006" stroke-width="20" stroke-linecap="round" stroke-linejoin="round"/>
    </g>
    <defs>
        <clipPath id="clip0_57_6">
            <rect width="512" height="512" fill="white"/>
        </clipPath>
    </defs>
</svg>