<svg xmlns="http://www.w3.org/2000/svg" version="1.1" xmlns:xlink="http://www.w3.org/1999/xlink" width="512" height="512" x="0" y="0" viewBox="0 0 512 512" style="enable-background:new 0 0 512 512" xml:space="preserve">
    <g>
        <path d="M469.333 225.088V128c0-29.397-23.936-53.333-53.333-53.333H96c-29.397 0-53.333 23.936-53.333 53.333v97.088C18.368 230.037 0 251.584 0 277.333v149.334c0 5.888 4.779 10.667 10.667 10.667s10.667-4.779 10.667-10.667v-32h469.333v32c0 5.888 4.779 10.667 10.667 10.667s10.667-4.779 10.667-10.667V277.333c-.001-25.749-18.369-47.296-42.668-52.245zM64 128c0-17.643 14.357-32 32-32h320c17.643 0 32 14.357 32 32v96h-29.355c2.091-5.867 2.624-12.203 1.067-18.432l-10.667-42.667a31.95 31.95 0 0 0-31.04-24.235h-68.672c-17.643 0-32 14.357-32 32v42.667c0 3.755.768 7.317 1.963 10.667h-46.592c1.195-3.349 1.963-6.912 1.963-10.667v-42.667c0-17.643-14.357-32-32-32h-68.672a31.973 31.973 0 0 0-31.04 24.235l-10.667 42.667c-1.557 6.229-1.024 12.565 1.067 18.432H64v-96zm333.077 91.904a10.591 10.591 0 0 1-8.405 4.096h-79.339c-5.888 0-10.667-4.779-10.667-10.667v-42.667c0-5.888 4.779-10.667 10.667-10.667h68.672c4.907 0 9.152 3.328 10.347 8.085l10.667 42.667c.81 3.201.106 6.55-1.942 9.153zm-183.765-49.259v42.667c0 5.888-4.779 10.667-10.667 10.667h-79.339c-3.307 0-6.379-1.493-8.405-4.096s-2.752-5.952-1.941-9.152l10.667-42.667c1.216-4.736 5.461-8.064 10.347-8.085h68.672c5.887 0 10.666 4.778 10.666 10.666zm277.355 202.688H21.333V352h469.333v21.333zm0-42.666H21.333v-53.333c0-17.643 14.357-32 32-32h405.335c17.643 0 32 14.357 32 32v53.333z" fill="#000000" opacity="1" data-original="#000000"></path>
    </g>
</svg>