<svg xmlns="http://www.w3.org/2000/svg" version="1.1" xmlns:xlink="http://www.w3.org/1999/xlink" width="512" height="512" x="0" y="0" viewBox="0 0 64 64" style="enable-background:new 0 0 512 512" xml:space="preserve" class="">
    <g>
        <path d="M58 48.5a1 1 0 0 1-1-1v-15a1 1 0 0 1 2 0v15a1 1 0 0 1-1 1zM6 48.5a1 1 0 0 1-1-1v-15a1 1 0 0 1 2 0v15a1 1 0 0 1-1 1zM50 31.5a1 1 0 0 1-1-1v-6a1 1 0 0 1 2 0v6a1 1 0 0 1-1 1zM14 31.5a1 1 0 0 1-1-1v-6a1 1 0 0 1 2 0v6a1 1 0 0 1-1 1zM35 31.5a1 1 0 0 1-1-1v-6a1 1 0 0 1 2 0v6a1 1 0 0 1-1 1zM29 31.5a1 1 0 0 1-1-1v-6a1 1 0 0 1 2 0v6a1 1 0 0 1-1 1z" fill="#000000" opacity="1" data-original="#000000" class=""></path>
        <path d="M29 25.5a1 1 0 0 1-1-1c0-.551-.449-1-1-1a1 1 0 0 1 0-2c1.654 0 3 1.346 3 3a1 1 0 0 1-1 1z" fill="#000000" opacity="1" data-original="#000000" class=""></path>
        <path d="M27 23.5H16a1 1 0 0 1 0-2h11a1 1 0 0 1 0 2zM35 25.5a1 1 0 0 1-1-1c0-1.654 1.346-3 3-3a1 1 0 0 1 0 2c-.551 0-1 .449-1 1a1 1 0 0 1-1 1z" fill="#000000" opacity="1" data-original="#000000" class=""></path>
        <path d="M48 23.5H37a1 1 0 0 1 0-2h11a1 1 0 0 1 0 2zM14 25.5a1 1 0 0 1-1-1c0-1.654 1.346-3 3-3a1 1 0 0 1 0 2c-.551 0-1 .449-1 1a1 1 0 0 1-1 1z" fill="#000000" opacity="1" data-original="#000000" class=""></path>
        <path d="M50 25.5a1 1 0 0 1-1-1c0-.551-.449-1-1-1a1 1 0 0 1 0-2c1.654 0 3 1.346 3 3a1 1 0 0 1-1 1zM56 27.5a1 1 0 0 1-1-1v-6a1 1 0 0 1 2 0v6a1 1 0 0 1-1 1zM8 27.5a1 1 0 0 1-1-1v-6a1 1 0 0 1 2 0v6a1 1 0 0 1-1 1zM56 31.5H8a1 1 0 0 1 0-2h48a1 1 0 0 1 0 2z" fill="#000000" opacity="1" data-original="#000000" class=""></path>
        <path d="M6 33.5a1 1 0 0 1-1-1c0-1.654 1.346-3 3-3a1 1 0 0 1 0 2c-.551 0-1 .449-1 1a1 1 0 0 1-1 1zM58 33.5a1 1 0 0 1-1-1c0-.551-.449-1-1-1a1 1 0 0 1 0-2c1.654 0 3 1.346 3 3a1 1 0 0 1-1 1zM8 21.5a1 1 0 0 1-1-1c0-2.757 2.243-5 5-5a1 1 0 0 1 0 2c-1.654 0-3 1.346-3 3a1 1 0 0 1-1 1zM56 21.5a1 1 0 0 1-1-1c0-1.654-1.346-3-3-3a1 1 0 0 1 0-2c2.757 0 5 2.243 5 5a1 1 0 0 1-1 1zM58 42.5H6a1 1 0 0 1 0-2h52a1 1 0 0 1 0 2z" fill="#000000" opacity="1" data-original="#000000" class=""></path>
        <path d="M52 17.5H12a1 1 0 0 1 0-2h40a1 1 0 0 1 0 2z" fill="#000000" opacity="1" data-original="#000000" class=""></path>
    </g>
</svg>