<svg xmlns="http://www.w3.org/2000/svg" version="1.1" xmlns:xlink="http://www.w3.org/1999/xlink" width="512" height="512" x="0" y="0" viewBox="0 0 24 24" style="enable-background:new 0 0 512 512" xml:space="preserve">
    <g>
        <path fill="#000000" fill-rule="evenodd" d="M12 4a8 8 0 1 0 7.86 6.498 1 1 0 0 1 1.964-.373C21.94 10.733 22 11.36 22 12c0 5.523-4.477 10-10 10S2 17.523 2 12 6.477 2 12 2c1.595 0 3.105.374 4.445 1.04a1 1 0 1 1-.89 1.791A7.963 7.963 0 0 0 12 4zm9.864.996a1 1 0 0 1-.36 1.368l-.222.129a20.935 20.935 0 0 0-8.296 8.964 1 1 0 0 1-1.607.272l-4.013-4.01a1 1 0 1 1 1.413-1.414l3.05 3.047a22.935 22.935 0 0 1 8.445-8.587l.222-.129a1 1 0 0 1 1.368.36z" clip-rule="evenodd" opacity="1" data-original="#000000"></path>
    </g>
</svg>