<svg xmlns="http://www.w3.org/2000/svg" version="1.1" xmlns:xlink="http://www.w3.org/1999/xlink" width="512" height="512" x="0" y="0" viewBox="0 0 48 48" style="enable-background:new 0 0 512 512" xml:space="preserve">
    <g>
        <g data-name="Dining Table">
            <path d="m28.555 39.7-2.11-1.4a1 1 0 0 1-.445-.835V25h-4v12.465a1 1 0 0 1-.445.832l-2.11 1.403a1 1 0 0 0-.445.832V41a1 1 0 0 0 1 1h8a1 1 0 0 0 1-1v-.465a1 1 0 0 0-.445-.835Z" fill="#000000" opacity="1" data-original="#000000"></path>
            <rect width="29" height="4" x="9" y="19" rx="1" fill="#000000" opacity="1" data-original="#000000"></rect>
            <path d="M25 9.054V8h1a1 1 0 0 0 0-2h-4a1 1 0 0 0 0 2h1v1.054A10.019 10.019 0 0 0 14.2 17h19.6A10.019 10.019 0 0 0 25 9.054Zm-2.3 4.087a6.026 6.026 0 0 0-3.462 2.205 1 1 0 0 1-1.588-1.217 8.036 8.036 0 0 1 4.617-2.941 1 1 0 1 1 .433 1.953ZM47.5 16.679A1.994 1.994 0 0 0 46 16h-1.079A2 2 0 0 0 43 17.481l-2.587 9.662h-6.169a2.99 2.99 0 0 0-2.894 2.25l-.285 1.107A2 2 0 0 0 33 33h.069l-1.931 7.758a1 1 0 0 0 .73 1.212.961.961 0 0 0 .242.03 1 1 0 0 0 .97-.758L35.127 33H42.3l1.826 8.217A1 1 0 0 0 45.1 42a1.018 1.018 0 0 0 .218-.024 1 1 0 0 0 .76-1.193l-1.764-7.936a3 3 0 0 0 2.061-2.447l1.608-12.132a2.005 2.005 0 0 0-.483-1.589ZM16.58 32.227a1.993 1.993 0 0 0 .357-1.727l-.286-1.106a2.988 2.988 0 0 0-2.893-2.25H7.593l-2.587-9.663A2 2 0 0 0 3.08 16H1.994a2 2 0 0 0-1.976 2.264L1.626 30.4a3 3 0 0 0 2.057 2.451l-1.764 7.932a1 1 0 0 0 1.953.434L5.7 33h7.176l2.051 8.242A1 1 0 0 0 15.9 42a.961.961 0 0 0 .242-.03 1 1 0 0 0 .729-1.212L14.935 33h.07a1.981 1.981 0 0 0 1.575-.773Z" fill="#000000" opacity="1" data-original="#000000"></path>
        </g>
    </g>
</svg>