<svg width="512" height="512" viewBox="0 0 512 512" fill="none" xmlns="http://www.w3.org/2000/svg">
    <g clip-path="url(#clip0_60_2)">
        <path d="M241.168 86.9745L245.5 86.0328V81.6V48C245.5 44.4499 246.659 41.9188 248.289 40.2891C249.919 38.6594 252.45 37.5 256 37.5C259.55 37.5 262.081 38.6594 263.711 40.2891C265.341 41.9188 266.5 44.4499 266.5 48V81.6V86.0328L270.832 86.9745C305.215 94.4492 330.5 124.3 330.5 160C330.5 163.55 329.341 166.081 327.711 167.711C326.081 169.341 323.55 170.5 320 170.5H192C188.45 170.5 185.919 169.341 184.289 167.711C182.659 166.081 181.5 163.55 181.5 160C181.5 124.3 206.785 94.4492 241.168 86.9745ZM300.8 149.5H308.431L306.018 142.261C298.798 120.601 277.334 106.5 254.4 106.5C231.249 106.5 211.536 120.799 204.382 142.261L201.969 149.5H209.6H300.8Z" stroke="black" stroke-width="11"/>
        <path d="M505.946 185.597C503.785 183.243 501.16 181.364 498.235 180.077C495.311 178.79 492.151 178.123 488.956 178.12H482.119C464.19 178.12 449.488 191.588 447.921 209.448L440.524 293.727C439.869 301.196 433.72 306.829 426.221 306.829H362.195C341.679 306.829 324.988 323.52 324.988 344.036V347.733C324.988 360.128 335.071 370.211 347.466 370.211H361.189L347.675 414.346L347.645 414.445L337.315 448.18C336.753 450.077 336.962 452.118 337.897 453.861C338.833 455.603 340.418 456.906 342.309 457.485C344.2 458.064 346.244 457.873 347.994 456.953C349.745 456.033 351.062 454.458 351.657 452.572L360.369 424.122H463.239L471.951 452.572C472.421 454.107 473.371 455.451 474.661 456.406C475.951 457.362 477.514 457.877 479.119 457.878C480.292 457.879 481.449 457.604 482.497 457.076C483.545 456.548 484.454 455.782 485.152 454.839C485.85 453.896 486.316 452.802 486.515 451.645C486.713 450.489 486.637 449.302 486.293 448.18L461.776 368.115C466.093 366.896 470.244 365.154 474.138 362.927C475.003 362.442 475.762 361.791 476.374 361.011C476.985 360.231 477.436 359.337 477.7 358.382C477.964 357.427 478.036 356.429 477.912 355.446C477.788 354.462 477.47 353.513 476.977 352.654C476.484 351.794 475.826 351.04 475.04 350.437C474.254 349.833 473.356 349.391 472.398 349.136C471.44 348.882 470.442 348.819 469.46 348.953C468.478 349.086 467.532 349.413 466.677 349.915C460.605 353.387 453.732 355.213 446.737 355.212H347.468C343.345 355.212 339.99 351.858 339.99 347.734V344.037C339.99 331.792 349.952 321.83 362.197 321.83H426.223C441.556 321.83 454.129 310.312 455.469 295.039L462.865 210.759C463.747 200.703 472.025 193.119 482.12 193.119H488.957C491.239 193.119 493.346 194.046 494.887 195.729C495.645 196.548 496.222 197.518 496.581 198.575C496.94 199.632 497.072 200.753 496.969 201.865L486.727 318.576C486.476 321.448 485.917 324.286 485.061 327.04C484.768 327.98 484.663 328.969 484.753 329.95C484.842 330.931 485.124 331.884 485.581 332.756C486.039 333.629 486.665 334.402 487.421 335.032C488.178 335.663 489.052 336.138 489.992 336.431C490.932 336.724 491.921 336.829 492.902 336.74C493.883 336.65 494.837 336.369 495.709 335.911C496.581 335.453 497.355 334.828 497.985 334.071C498.616 333.315 499.091 332.441 499.384 331.501C500.558 327.722 501.325 323.828 501.671 319.887L511.913 203.176C512.187 199.993 511.799 196.787 510.772 193.761C509.745 190.735 508.102 187.956 505.946 185.597ZM376.874 370.212H446.729L458.643 409.122H364.959L376.874 370.212ZM149.803 306.83H85.7768C78.2778 306.83 72.1298 301.198 71.4738 293.728L64.0778 209.449C62.5108 191.589 47.8089 178.121 29.8799 178.121H23.0429C19.8478 178.124 16.6881 178.791 13.7637 180.078C10.8393 181.365 8.21367 183.244 6.05294 185.598C3.89705 187.957 2.25384 190.737 1.22712 193.763C0.200408 196.789 -0.187486 199.995 0.0879522 203.179L10.3299 319.89C11.5233 333.631 17.8348 346.423 28.0139 355.731C34.3465 361.54 41.9515 365.786 50.2199 368.128L25.7059 448.182C25.1434 450.079 25.3527 452.12 26.288 453.863C27.2233 455.605 28.8091 456.908 30.7001 457.487C32.5911 458.066 34.6343 457.875 36.385 456.955C38.1357 456.035 39.4522 454.46 40.0479 452.574L48.7599 424.124H151.63L160.342 452.574C160.811 454.109 161.761 455.453 163.051 456.408C164.342 457.363 165.904 457.879 167.51 457.88C168.683 457.881 169.84 457.606 170.888 457.078C171.935 456.55 172.845 455.784 173.542 454.841C174.24 453.898 174.707 452.804 174.905 451.647C175.103 450.491 175.027 449.304 174.684 448.182L164.354 414.447L164.324 414.348L150.81 370.213H164.533C176.928 370.213 187.01 360.13 187.01 347.735V344.038C187.01 323.521 170.319 306.83 149.803 306.83ZM53.3528 409.122L65.2668 370.212H135.122L147.036 409.122H53.3528ZM172.01 347.734C172.01 351.858 168.656 355.212 164.533 355.212H65.2628C63.68 355.209 62.0987 355.114 60.5268 354.929H60.5218C41.7579 352.76 26.9639 337.864 25.2719 318.577L15.0299 201.867C14.9268 200.755 15.0589 199.634 15.4176 198.577C15.7763 197.519 16.3536 196.549 17.1119 195.73C17.8618 194.903 18.7774 194.243 19.799 193.794C20.8207 193.344 21.9257 193.114 23.0419 193.12H29.8789C39.9739 193.12 48.2519 200.703 49.1339 210.76L56.5298 295.039V295.038C57.8698 310.311 70.4428 321.829 85.7758 321.829H149.802C162.047 321.829 172.009 331.791 172.009 344.036L172.01 347.734Z" fill="black"/>
        <path d="M312.948 433.141C309.853 421.244 299.107 412.935 286.814 412.935H282.172V276.401H374.526C377.142 276.405 379.727 275.825 382.09 274.703C384.454 273.58 386.537 271.944 388.187 269.913C389.844 267.887 391.028 265.517 391.652 262.976C392.276 260.434 392.323 257.785 391.792 255.223C388.566 239.539 374.604 228.156 358.593 228.156H202.665C198.522 228.156 195.165 231.514 195.165 235.656C195.165 239.798 198.522 243.156 202.665 243.156H358.593C367.519 243.156 375.301 249.502 377.099 258.244C377.18 258.626 377.174 259.021 377.081 259.401C376.988 259.78 376.81 260.133 376.562 260.435C376.317 260.739 376.007 260.984 375.654 261.151C375.302 261.319 374.916 261.404 374.526 261.402H137.472C137.081 261.404 136.696 261.319 136.343 261.151C135.991 260.984 135.68 260.739 135.436 260.435C135.187 260.134 135.01 259.78 134.917 259.401C134.824 259.022 134.818 258.627 134.899 258.245C136.697 249.502 144.479 243.156 153.405 243.156H167.489C171.632 243.156 174.989 239.798 174.989 235.656C174.989 231.514 171.632 228.156 167.489 228.156H153.405C137.393 228.156 123.431 239.539 120.206 255.224C119.674 257.786 119.722 260.435 120.346 262.976C120.969 265.518 122.153 267.888 123.811 269.913C125.461 271.944 127.543 273.58 129.907 274.703C132.271 275.825 134.855 276.405 137.472 276.401H229.827V412.936H225.185C212.892 412.936 202.146 421.245 199.051 433.141L197.29 439.908C196.73 442.03 196.668 444.252 197.108 446.402C197.548 448.552 198.478 450.572 199.826 452.304C201.162 454.044 202.883 455.453 204.853 456.42C206.823 457.387 208.989 457.887 211.184 457.88H300.814C305.293 457.88 309.432 455.848 312.172 452.304C313.52 450.572 314.45 448.552 314.889 446.402C315.329 444.252 315.267 442.03 314.708 439.908L312.948 433.141ZM244.827 276.401H267.173V412.936H244.827V276.401ZM212.016 442.879L213.568 436.917C214.237 434.345 215.74 432.068 217.842 430.443C219.945 428.818 222.527 427.936 225.184 427.936H286.813C289.47 427.936 292.052 428.818 294.154 430.443C296.256 432.068 297.76 434.345 298.429 436.917L299.981 442.879H212.016Z" fill="black"/>
    </g>
    <defs>
        <clipPath id="clip0_60_2">
            <rect width="512" height="512" fill="white"/>
        </clipPath>
    </defs>
</svg>