<svg xmlns="http://www.w3.org/2000/svg" version="1.1" xmlns:xlink="http://www.w3.org/1999/xlink" width="512" height="512" x="0" y="0" viewBox="0 0 480 480" style="enable-background:new 0 0 512 512" xml:space="preserve">
    <g>
        <path d="M437.333 165.333c-7.467 0-14.827 2.133-21.333 5.973v-5.973C416 129.92 398.08 112 362.667 112H117.333C81.92 112 64 129.92 64 165.333v5.973a43.166 43.166 0 0 0-21.333-5.973C19.093 165.333 0 184.427 0 208v85.333C0 316.907 19.093 336 42.667 336H64v21.333C64 363.2 68.8 368 74.667 368s10.667-4.8 10.667-10.667V336h309.333v21.333c0 5.867 4.8 10.667 10.667 10.667C411.2 368 416 363.2 416 357.333V336h21.227C460.8 336 480 316.907 480 293.333V208c0-23.573-19.093-42.667-42.667-42.667zm-352 0c0-23.573 8.32-32 32-32h245.333c23.573 0 32 8.427 32 32V240H85.333v-74.667zm373.334 128c0 11.84-9.707 21.333-21.44 21.333H42.667c-11.733 0-21.333-9.6-21.333-21.333V208c0-11.733 9.6-21.333 21.333-21.333S64 196.267 64 208v53.333h352V208c0-11.733 9.6-21.333 21.333-21.333s21.333 9.6 21.333 21.333v85.333z" fill="#000000" opacity="1" data-original="#000000"></path>
    </g>
</svg>