<svg xmlns="http://www.w3.org/2000/svg" version="1.1" xmlns:xlink="http://www.w3.org/1999/xlink" width="512" height="512" x="0" y="0" viewBox="0 0 64 64" style="enable-background:new 0 0 512 512" xml:space="preserve" class="">
    <g>
        <path d="M37 37v-1h-2a1 1 0 0 1 0-2h3.5a1.5 1.5 0 0 0 0-3h-1a3.492 3.492 0 0 1-.5-6.95V23a1 1 0 0 1 2 0v1h2a1 1 0 0 1 0 2h-3.5a1.5 1.5 0 0 0 0 3h1a3.492 3.492 0 0 1 .5 6.95V37a1 1 0 0 1-2 0Zm22.541 14.31-17.357 9.144a13.413 13.413 0 0 1-12.25.13L14 52.617V53a3.003 3.003 0 0 1-3 3H3a1 1 0 0 1 0-2h8a1 1 0 0 0 1-1V31a1 1 0 0 0-1-1H3a1 1 0 0 1 0-2h8a3.003 3.003 0 0 1 3 3h7.518a11.041 11.041 0 0 1 6.832 2.379l11.695 9.268a5.177 5.177 0 0 1 1.916 3.377l14.415-3.276a4.603 4.603 0 0 1 3.165 8.563Zm.324-4.896a2.595 2.595 0 0 0-3.046-1.716l-14.985 3.406a5.221 5.221 0 0 1-7.547 3.222L22.52 44.877a1 1 0 1 1 .961-1.754l11.767 6.45a3.233 3.233 0 0 0 4.03-.765 3.224 3.224 0 0 0-.475-4.594l-11.696-9.268A9.034 9.034 0 0 0 21.517 33H14v17.38l16.828 8.415a11.608 11.608 0 0 0 10.424-.11l17.357-9.144a2.594 2.594 0 0 0 1.256-3.127ZM41.29 41.082a.977.977 0 0 0 .606.211.998.998 0 0 0 .51-.142 11.994 11.994 0 1 0-16.36-12.081 1 1 0 1 0 1.994.153 9.995 9.995 0 1 1 13.493 10.122 1 1 0 0 0-.264 1.72ZM14.22 19.625a1 1 0 0 1 .192-1.434L35.603 2.78a4.136 4.136 0 0 1 4.794 0L46 6.855V3a1 1 0 0 1 1-1h8a1 1 0 0 1 1 1v11.127l5.588 4.064a1 1 0 0 1 .192 1.435l-2.9 3.62a1 1 0 0 1-1.368.183L56 22.329V40a1 1 0 0 1-2 0V20.874L38 9.236 22 20.874V28a1 1 0 0 1-2 0v-5.67l-1.512 1.1a1 1 0 0 1-1.368-.184ZM48 8.31l6 4.364V4h-6ZM16.436 19.192l1.648 2.058L37.412 7.191a.999.999 0 0 1 1.176 0L57.916 21.25l1.649-2.058L39.22 4.397a2.105 2.105 0 0 0-2.44 0Z" data-name="05-Real Estate" fill="#000000" opacity="1" data-original="#000000"></path>
    </g>
</svg>