<svg xmlns="http://www.w3.org/2000/svg" version="1.1" xmlns:xlink="http://www.w3.org/1999/xlink" width="512" height="512" x="0" y="0" viewBox="0 0 512 512" style="enable-background:new 0 0 512 512" xml:space="preserve" class="">
    <g>
        <path d="M255.981 0c-79.953 0-145 65.047-145 145s65.047 145 145 145 145-65.047 145-145-65.047-145-145-145zm15 217.42V235h-30v-16.231l-21.281-1.824 2.563-29.891 32.913 2.821c1.109.095 2.052.094 2.802-.005 7.412-.975 13.004-7.368 13.004-14.871 0-8.271-6.729-15-15-15-24.813 0-45-20.187-45-45 0-10.054 3.245-19.565 9.384-27.506 5.32-6.882 12.536-11.899 20.616-14.682V55h30v16.991l22.121 3.16-4.242 29.698-30.663-4.38c-5.521-.789-10.925 1.27-14.097 5.373a14.837 14.837 0 0 0-3.119 9.158c0 8.271 6.729 15 15 15 24.813 0 45 20.187 45 45-.001 19.319-12.393 36.178-30.001 42.42z" fill="#000000" opacity="1" data-original="#000000" class=""></path>
        <path d="M502.399 274.324c-13.343-13.863-35.87-13.604-49.475.002l-70.898 70.898c-2.849 2.85-5.059 6.26-6.599 9.983-9.656 23.342-32.67 39.807-59.46 39.807H215.902v-30h100.066c18.951 0 34.314-15.363 34.314-34.314 0-12.295-6.471-23.074-16.189-29.133C310.566 313.353 284.037 320 255.981 320c-47.557 0-90.735-19.077-122.308-49.969-20.271 2.177-39.769 11.098-54.942 26.271L.019 375.052 136.967 512a128.87 128.87 0 0 1 91.125-37.745h79.964a102.94 102.94 0 0 0 72.984-30.345l120.89-121.536c13.243-13.242 13.399-34.616.469-48.05z" fill="#000000" opacity="1" data-original="#000000" class=""></path>
    </g>
</svg>