<svg xmlns="http://www.w3.org/2000/svg" version="1.1" xmlns:xlink="http://www.w3.org/1999/xlink" width="512" height="512" x="0" y="0" viewBox="0 0 330.004 330.004" style="enable-background:new 0 0 512 512" xml:space="preserve">
    <g>
        <path d="M315.002 0h-300c-8.284 0-15 6.716-15 15v300.004c0 8.284 6.716 15 15 15h170c8.284 0 15-6.716 15-15 0-8.284-6.716-15-15-15h-155v-130h70V225c0 8.284 6.716 15 15 15s15-6.716 15-15V85c0-8.284-6.716-15-15-15s-15 6.716-15 15v55.004h-70V30h150v75.004c0 8.284 6.716 15 15 15h70c8.284 0 15-6.716 15-15 0-8.284-6.716-15-15-15h-55V30h90v180.004h-105c-8.284 0-15 6.716-15 15 0 8.284 6.716 15 15 15h105v60h-25c-8.284 0-15 6.716-15 15 0 8.284 6.716 15 15 15h40c8.284 0 15-6.716 15-15V15c0-8.284-6.716-15-15-15z" fill="#000000" opacity="1" data-original="#000000"></path>
    </g>
</svg>