<svg xmlns="http://www.w3.org/2000/svg" version="1.1" xmlns:xlink="http://www.w3.org/1999/xlink" width="512" height="512" x="0" y="0" viewBox="0 0 409 409.636" style="enable-background:new 0 0 512 512" xml:space="preserve" class="">
    <g>
        <path d="M375.781 307.164v-34.129h34.137v-51.2H239.254V136.5h34.129v51.2h136.535v-51.2h-34.137v-34.137h34.137V0H273.383v102.363h-34.13V0h-34.136v34.137h-34.133V0h-34.132v153.563h-34.133V0H.316v102.363H34.45V136.5H.316v102.395H34.45v34.199H.316v136.543H68.59v-34.172h34.129v34.172h34.133V273.094H68.59v-34.2h68.262V187.7h68.265v34.137h-34.133v187.726h34.133v-34.097h34.137v34.097h68.266v-34.097h34.132v34.097h68.266V307.164zm0 0" fill="#000000" opacity="1" data-original="#000000" class=""></path>
    </g>
</svg>