<svg xmlns="http://www.w3.org/2000/svg" version="1.1" xmlns:xlink="http://www.w3.org/1999/xlink" width="512" height="512" x="0" y="0" viewBox="0 0 696.78 696.78" style="enable-background:new 0 0 512 512" xml:space="preserve">
    <g>
        <path d="M582.13 603.33h-118a15 15 0 0 1-15-15V336.17a121.26 121.26 0 0 1 25.64-207.23 15 15 0 0 1 21 13.75v67.89a14.58 14.58 0 0 0 14.57 14.56h25.63a14.57 14.57 0 0 0 14.55-14.56v-67.89a15 15 0 0 1 21-13.75 121.26 121.26 0 0 1 25.65 207.23v252.16a15 15 0 0 1-15.04 15zm-103-30h88V328.49a15 15 0 0 1 6.65-12.49 91.26 91.26 0 0 0 6.71-146.85v41.4a44.6 44.6 0 0 1-44.55 44.56h-25.63a44.62 44.62 0 0 1-44.57-44.56v-41.4A91.27 91.27 0 0 0 472.45 316a15 15 0 0 1 6.66 12.46z" fill="#000000" opacity="1" data-original="#000000"></path>
        <path d="M403.72 603.33H126.44a15 15 0 0 1-15-15V374.18h-44a15 15 0 0 1-15-15v-38.71a15 15 0 0 1 5.62-11.7l77.17-61.88V133.33a15 15 0 0 1 15-15h74.25a15 15 0 0 1 15 15v30L319.73 99a15 15 0 0 1 18.76 0l52.25 41.89A15 15 0 0 1 372 164.26l-42.86-34.37-95.25 76.37a15 15 0 0 1-24.39-11.7v-46.23h-44.28v105.76a15 15 0 0 1-5.61 11.7l-77.18 61.88v16.51h44a15 15 0 0 1 15 15v214.15h262.29a15 15 0 0 1 0 30z" fill="#000000" opacity="1" data-original="#000000"></path>
        <path d="M394.1 504.16h-130a15 15 0 0 1-15-15v-130a15 15 0 0 1 15-15h130a15 15 0 0 1 15 15v130a15 15 0 0 1-15 15zm-115-30h100v-100h-100z" fill="#000000" opacity="1" data-original="#000000"></path>
    </g>
</svg>