<svg width="512" height="512" viewBox="0 0 512 512" fill="none" xmlns="http://www.w3.org/2000/svg">
    <path d="M56.125 111.6L455.875 111.6C457.234 111.6 458.538 111.2 459.499 110.487C460.46 109.774 461 108.808 461 107.8C461 106.792 460.46 105.826 459.499 105.113C458.538 104.4 457.234 104 455.875 104L56.125 104C54.7658 104 53.4622 104.4 52.5011 105.113C51.5399 105.826 51 106.792 51 107.8C51 108.808 51.5399 109.774 52.5011 110.487C53.4622 111.2 54.7658 111.6 56.125 111.6ZM56.125 408L455.875 408C457.234 408 458.538 407.6 459.499 406.887C460.46 406.174 461 405.208 461 404.2C461 403.192 460.46 402.226 459.499 401.513C458.538 400.8 457.234 400.4 455.875 400.4L56.125 400.4C54.7658 400.4 53.4622 400.8 52.5011 401.513C51.5399 402.226 51 403.192 51 404.2C51 405.208 51.5399 406.174 52.5011 406.887C53.4622 407.6 54.7658 408 56.125 408ZM56.125 252.2C54.7658 252.2 53.4622 252.6 52.5011 253.313C51.5399 254.026 51 254.992 51 256C51 257.008 51.5399 257.974 52.5011 258.687C53.4622 259.4 54.7658 259.8 56.125 259.8L97.658 259.8C99.0172 259.8 100.321 259.4 101.282 258.687C102.243 257.974 102.783 257.008 102.783 256C102.783 254.992 102.243 254.026 101.282 253.313C100.321 252.6 99.0172 252.2 97.658 252.2L56.125 252.2ZM145.679 252.2C144.32 252.2 143.016 252.6 142.055 253.313C141.094 254.026 140.554 254.992 140.554 256C140.554 257.008 141.094 257.974 142.055 258.687C143.016 259.4 144.32 259.8 145.679 259.8L187.212 259.8C188.571 259.8 189.875 259.4 190.836 258.687C191.797 257.974 192.337 257.008 192.337 256C192.337 254.992 191.797 254.026 190.836 253.313C189.875 252.6 188.571 252.2 187.212 252.2L145.679 252.2ZM235.234 252.2C233.874 252.2 232.571 252.6 231.61 253.313C230.648 254.026 230.109 254.992 230.109 256C230.109 257.008 230.648 257.974 231.61 258.687C232.571 259.4 233.874 259.8 235.234 259.8L276.766 259.8C278.126 259.8 279.429 259.4 280.39 258.687C281.352 257.974 281.891 257.008 281.891 256C281.891 254.992 281.352 254.026 280.39 253.313C279.429 252.6 278.126 252.2 276.766 252.2L235.234 252.2ZM324.788 252.2C323.429 252.2 322.125 252.6 321.164 253.313C320.203 254.026 319.663 254.992 319.663 256C319.663 257.008 320.203 257.974 321.164 258.687C322.125 259.4 323.429 259.8 324.788 259.8L366.321 259.8C367.68 259.8 368.984 259.4 369.945 258.687C370.906 257.974 371.446 257.008 371.446 256C371.446 254.992 370.906 254.026 369.945 253.313C368.984 252.6 367.68 252.2 366.321 252.2L324.788 252.2ZM409.217 256C409.217 257.008 409.757 257.974 410.718 258.687C411.679 259.4 412.983 259.8 414.342 259.8L455.875 259.8C457.234 259.8 458.538 259.4 459.499 258.687C460.46 257.974 461 257.008 461 256C461 254.992 460.46 254.026 459.499 253.313C458.538 252.6 457.234 252.2 455.875 252.2L414.342 252.2C412.983 252.2 411.679 252.6 410.718 253.313C409.757 254.026 409.217 254.992 409.217 256Z" fill="black"/>
</svg>