<svg xmlns="http://www.w3.org/2000/svg" version="1.1" xmlns:xlink="http://www.w3.org/1999/xlink" width="512" height="512" x="0" y="0" viewBox="0 0 32 32" style="enable-background:new 0 0 512 512" xml:space="preserve">
    <g>
        <path d="M29 11H3a1 1 0 1 1 0-2h26a1 1 0 1 1 0 2zm1 11a1 1 0 0 0-1-1H3a1 1 0 1 0 0 2h26a1 1 0 0 0 1-1zm-20-6a1 1 0 0 0-1-1H5a1 1 0 1 0 0 2h4a1 1 0 0 0 1-1zm9 0a1 1 0 0 0-1-1h-4a1 1 0 1 0 0 2h4a1 1 0 0 0 1-1zm9 0a1 1 0 0 0-1-1h-4a1 1 0 1 0 0 2h4a1 1 0 0 0 1-1z" fill="#000000" opacity="1" data-original="#000000"></path>
    </g>
</svg>