<svg width="512" height="512" viewBox="0 0 512 512" fill="none" xmlns="http://www.w3.org/2000/svg">
    <path d="M217.985 217.985C219.646 216.324 220.578 214.072 220.578 211.723C220.578 209.375 219.646 207.122 217.985 205.461L162.238 149.714L211.714 149.714C214.063 149.714 216.316 148.781 217.977 147.12C219.638 145.459 220.571 143.206 220.571 140.857C220.571 138.508 219.638 136.255 217.977 134.594C216.316 132.933 214.063 132 211.714 132L140.857 132C138.508 132 136.255 132.933 134.594 134.594C132.933 136.255 132 138.508 132 140.857L132 211.714C132 214.063 132.933 216.316 134.594 217.977C136.255 219.638 138.508 220.571 140.857 220.571C143.206 220.571 145.459 219.638 147.12 217.977C148.781 216.316 149.714 214.063 149.714 211.714L149.714 162.238L205.443 217.967C206.265 218.793 207.241 219.449 208.317 219.897C209.392 220.345 210.546 220.577 211.711 220.578C212.876 220.58 214.03 220.352 215.106 219.907C216.183 219.462 217.161 218.809 217.985 217.985ZM379.327 374.526C379.761 373.45 379.989 372.303 380 371.143L380 300.286C380 297.937 379.067 295.684 377.406 294.023C375.745 292.362 373.492 291.429 371.143 291.429C368.794 291.429 366.541 292.362 364.88 294.023C363.219 295.684 362.286 297.937 362.286 300.286L362.286 349.762L306.557 294.033C305.734 293.209 304.758 292.556 303.683 292.109C302.608 291.663 301.456 291.433 300.292 291.433C297.942 291.431 295.687 292.363 294.024 294.024C292.361 295.684 291.425 297.938 291.424 300.288C291.422 302.639 292.354 304.893 294.015 306.557L349.762 362.286L300.286 362.286C297.937 362.286 295.684 363.219 294.023 364.88C292.362 366.541 291.429 368.794 291.429 371.143C291.429 373.492 292.362 375.745 294.023 377.406C295.684 379.067 297.937 380 300.286 380L371.143 380C372.895 379.997 374.607 379.476 376.064 378.502C377.52 377.528 378.655 376.145 379.327 374.526Z" fill="black"/>
    <path d="M409.6 51.2H102.4C88.8261 51.2162 75.8126 56.6157 66.2143 66.214C56.6159 75.8124 51.2165 88.8259 51.2002 102.4V409.6C51.2002 437.842 74.1788 460.8 102.4 460.8H409.6C437.822 460.8 460.8 437.842 460.8 409.6V102.4C460.8 74.158 437.822 51.2 409.6 51.2ZM440.32 409.6C440.32 426.537 426.537 440.32 409.6 440.32H102.4C85.4632 440.32 71.6802 426.537 71.6802 409.6V102.4C71.6802 85.463 85.4632 71.68 102.4 71.68H409.6C426.537 71.68 440.32 85.463 440.32 102.4V409.6Z" fill="black"/>
</svg>