<svg xmlns="http://www.w3.org/2000/svg" version="1.1" xmlns:xlink="http://www.w3.org/1999/xlink" width="512" height="512" x="0" y="0" viewBox="0 0 60 60" style="enable-background:new 0 0 512 512" xml:space="preserve">
    <g>
        <g fill="#000" fill-rule="nonzero">
            <path d="m38.914 37.5 19.012-19.011A2 2 0 0 1 58 19v37a2 2 0 0 1-.074.511zM56 17c.173.002.345.028.511.075L37.5 36.086 18.489 17.075A1.96 1.96 0 0 1 19 17zM17.074 56.511A2 2 0 0 1 17 56V19a2 2 0 0 1 .074-.511L36.086 37.5zM19 58a1.96 1.96 0 0 1-.511-.075L37.5 38.914l19.011 19.011A1.96 1.96 0 0 1 56 58zM11 15H1a1 1 0 0 0 0 2h10a1 1 0 0 0 0-2zM1 60h10a1 1 0 0 0 0-2H1a1 1 0 0 0 0 2zM10.231 26.64a1 1 0 0 0 1.538-1.28l-5-6a1 1 0 0 0-1.538 0l-5 6a1 1 0 1 0 1.538 1.28L5 22.762v29.476L1.769 48.36a1 1 0 0 0-1.538 1.28l5 6a1.008 1.008 0 0 0 1.538 0l5-6a1 1 0 0 0-1.538-1.28L7 52.238V22.762zM59 0a1 1 0 0 0-1 1v10a1 1 0 0 0 2 0V1a1 1 0 0 0-1-1zM17 11V1a1 1 0 0 0-2 0v10a1 1 0 0 0 2 0zM26.769.36a1 1 0 0 0-1.41-.128l-6 5A1.154 1.154 0 0 0 19 6c.019.292.147.566.359.768l6 5a1 1 0 1 0 1.282-1.536L22.762 7h29.476l-3.879 3.232a1 1 0 1 0 1.282 1.536l6-5c.212-.202.34-.476.359-.768a1.037 1.037 0 0 0-.359-.768l-6-5a1 1 0 1 0-1.282 1.536L52.238 5H22.762l3.879-3.232A1 1 0 0 0 26.769.36z" fill="#000000" opacity="1" data-original="#000000"></path>
        </g>
    </g>
</svg>