<svg xmlns="http://www.w3.org/2000/svg" version="1.1" xmlns:xlink="http://www.w3.org/1999/xlink" width="512" height="512" x="0" y="0" viewBox="0 0 64 64" style="enable-background:new 0 0 512 512" xml:space="preserve">
    <g>
        <path d="M10 4v38.85c2.06-.58 4-2.8 4-4.85v-5h17v23H14v-4c0-2.05-1.94-4.27-4-4.85V60h44V4zm4 27V8h17v23zm36 25H33V33h17zm0-25H33V8h17z" fill="#000000" opacity="1" data-original="#000000"></path>
        <path d="M16 52c0-3.47 3.53-7 7-7-3.47 0-7-3.53-7-7 0 3.47-3.53 7-7 7 3.47 0 7 3.53 7 7zM41 26c0-2.48 2.52-5 5-5-2.48 0-5-2.52-5-5 0 2.48-2.52 5-5 5 2.48 0 5 2.52 5 5z" fill="#000000" opacity="1" data-original="#000000"></path>
    </g>
</svg>