<svg width="512" height="512" viewBox="0 0 512 512" fill="none" xmlns="http://www.w3.org/2000/svg">
    <path d="M112 258H106V264V304C106 310.383 102.918 317.604 97.5862 323.95C94.2479 327.924 90.2327 331.304 86 333.747V38H426V474H86V386.253C90.2327 388.696 94.2479 392.076 97.5862 396.05C102.918 402.396 106 409.617 106 416V448V454H112H248H254V448V264V258H248H112ZM106 248V254H112H248H254V248V64V58H248H112H106V64V248ZM400 454H406V448V264V258H400H264H258V264V448V454H264H400ZM400 254H406V248V64V58H400H264H258V64V248V254H264H400Z" stroke="black" stroke-width="12"/>
    <path d="M128 416C128 388.24 156.24 360 184 360C156.24 360 128 331.76 128 304C128 331.76 99.76 360 72 360C99.76 360 128 388.24 128 416ZM328 208C328 188.16 348.16 168 368 168C348.16 168 328 147.84 328 128C328 147.84 307.84 168 288 168C307.84 168 328 188.16 328 208Z" fill="black"/>
</svg>