<svg width="512" height="512" viewBox="0 0 512 512" fill="none" xmlns="http://www.w3.org/2000/svg">
    <path d="M433.143 217.111H220.571C220.571 196.483 213.106 176.7 199.818 162.114C186.53 147.528 168.507 139.333 149.714 139.333H78.8571C66.3693 139.391 54.1279 143.153 43.4286 150.222V100.444C43.4286 95.2875 41.5622 90.3417 38.2402 86.6951C34.9181 83.0486 30.4124 81 25.7143 81C21.0162 81 16.5105 83.0486 13.1884 86.6951C9.86632 90.3417 8 95.2875 8 100.444V411.556C8 416.713 9.86632 421.658 13.1884 425.305C16.5105 428.951 21.0162 431 25.7143 431C30.4124 431 34.9181 428.951 38.2402 425.305C41.5622 421.658 43.4286 416.713 43.4286 411.556V372.667H468.571V411.556C468.571 416.713 470.438 421.658 473.76 425.305C477.082 428.951 481.588 431 486.286 431C490.984 431 495.49 428.951 498.812 425.305C502.134 421.658 504 416.713 504 411.556V294.889C504 274.261 496.535 254.478 483.246 239.892C469.958 225.306 451.935 217.111 433.143 217.111ZM78.8571 178.222H149.714C159.111 178.222 168.122 182.319 174.766 189.613C181.41 196.906 185.143 206.797 185.143 217.111H43.4286C43.4286 206.797 47.1612 196.906 53.8054 189.613C60.4495 182.319 69.4609 178.222 78.8571 178.222ZM43.4286 333.778V256H433.143C442.539 256 451.55 260.097 458.195 267.39C464.839 274.683 468.571 284.575 468.571 294.889V333.778H43.4286Z" fill="black"/>
</svg>