<svg xmlns="http://www.w3.org/2000/svg" version="1.1" xmlns:xlink="http://www.w3.org/1999/xlink" width="512" height="512" x="0" y="0" viewBox="0 0 64 64" style="enable-background:new 0 0 512 512" xml:space="preserve" class="">
    <g>
        <path d="M60.51 25.65A3.47 3.47 0 0 0 57 29.11v.41H18.73v-1A6.54 6.54 0 0 0 12.19 22H6.65v-8A3.32 3.32 0 0 0 0 14v38.3a1 1 0 0 0 1 1h4.68a1 1 0 0 0 1-1v-5H57v5a1 1 0 0 0 1 1h5a1 1 0 0 0 1-1V29.11a3.47 3.47 0 0 0-3.49-3.46ZM57 41.2H27.33v-9.74H57Zm-31.61-9.74v9.74h-6.66v-9.74ZM6.65 41.2v-9.74H16.8v9.74ZM2 16h2.71v.73H2Zm10.23 8a4.62 4.62 0 0 1 4.61 4.61v1H6.65V23.9Zm-8.9-11.33A1.38 1.38 0 0 1 4.71 14H2a1.38 1.38 0 0 1 1.33-1.33Zm1.38 38.66H2V18.61h2.71Zm1.94-6v-2.19H57v2.19Zm55.39 6H59V29.11a1.53 1.53 0 0 1 3.06 0Z" fill="#000000" opacity="1" data-original="#000000" class=""></path>
    </g>
</svg>