<svg width="520" height="333" viewBox="0 0 520 333" fill="none" xmlns="http://www.w3.org/2000/svg">
    <path d="M89.3335 155.526H89.3313C41.099 155.526 2 194.61 2 242.817C2 291.03 41.0991 330.11 89.3313 330.11C137.564 330.11 176.662 291.03 176.662 242.817V242.815C176.611 194.631 137.542 155.58 89.3335 155.526ZM89.329 309.052C52.7301 309.051 23.0662 279.398 23.0662 242.817C23.0662 206.242 52.7315 176.584 89.3313 176.584C125.931 176.584 155.595 206.24 155.597 242.815C155.555 279.382 125.91 309.01 89.329 309.052Z" fill="black" stroke="black" stroke-width="4"/>
    <path d="M89.3312 206.701C69.3779 206.701 53.1987 222.871 53.1987 242.817C53.1987 262.769 69.378 278.935 89.3312 278.935C109.285 278.935 125.464 262.769 125.464 242.817C125.464 222.871 109.285 206.701 89.3312 206.701ZM89.3312 257.876C81.0097 257.876 74.265 251.137 74.265 242.817C74.265 234.502 81.01 227.76 89.3312 227.76C97.6524 227.76 104.397 234.502 104.397 242.817C104.397 251.137 97.6526 257.876 89.3312 257.876Z" fill="black" stroke="black" stroke-width="4"/>
    <mask id="path-3-outside-1_295_19" maskUnits="userSpaceOnUse" x="8.53027" y="0" width="512" height="332" fill="black">
        <rect fill="white" x="8.53027" width="512" height="332"/>
        <path d="M430.656 157.526C420.656 157.546 410.738 159.337 401.361 162.813L393.974 147.464C404.645 143.355 415.925 141.048 427.352 140.638C428.156 140.638 428.94 140.521 429.752 140.513C446.691 140.33 463.408 144.369 478.393 152.265C480.394 153.294 482.719 153.491 484.864 152.814C487.008 152.138 488.799 150.641 489.846 148.651C490.893 146.661 491.112 144.338 490.454 142.187C489.796 140.037 488.315 138.233 486.335 137.169C469.306 128.211 450.353 123.527 431.11 123.522C430.947 123.522 430.818 123.43 430.656 123.43H429.803C428.285 123.43 426.773 123.592 425.257 123.658C411.979 124.231 398.891 127.029 386.54 131.938L372.578 102.881C380.344 105.214 388.414 106.383 396.524 106.35C401.237 106.35 405.057 102.536 405.057 97.8213V29.5876C405.057 27.3256 404.158 25.1561 402.558 23.5566C400.958 21.957 398.787 21.0585 396.524 21.0585C386.65 20.5502 376.788 22.2811 367.678 26.1214C358.568 29.9617 350.446 35.812 343.917 43.2343L327.406 8.84033C326.71 7.39335 325.621 6.17166 324.263 5.31549C322.904 4.45932 321.332 4.00338 319.726 4H268.527C266.264 4 264.093 4.89861 262.493 6.49815C260.893 8.09769 259.994 10.2671 259.994 12.5292C259.994 14.7913 260.893 16.9607 262.493 18.5602C264.093 20.1598 266.264 21.0585 268.527 21.0585H314.359L326.647 46.646H256.99C245.816 46.6596 234.894 49.9657 225.591 56.1509C216.288 62.3362 209.015 71.1258 204.682 81.4207C203.244 81.0087 201.758 80.7876 200.262 80.7629H63.7319C44.8822 80.7629 29.5994 96.0388 29.5994 114.88C29.642 123.822 36.5827 131.213 45.503 131.821C34.8421 135.984 24.8401 141.666 15.8077 148.693C14.9248 149.383 14.1867 150.239 13.6351 151.215C13.0837 152.19 12.7297 153.264 12.5935 154.375C12.4573 155.487 12.5416 156.615 12.8414 157.694C13.1412 158.773 13.6508 159.783 14.341 160.665C15.7358 162.449 17.7818 163.604 20.0292 163.879C22.2765 164.154 24.5411 163.525 26.3248 162.132C57.1774 138.06 99.0643 133.67 134.242 150.833C169.416 167.991 191.733 203.695 191.729 242.817V254.055C191.226 257.274 191.388 260.56 192.204 263.714C193.02 266.867 194.474 269.821 196.475 272.39C198.113 273.944 200.05 275.147 202.168 275.929C204.286 276.709 206.541 277.052 208.795 276.935H302.659C306.042 277.011 309.405 276.402 312.545 275.142C315.686 273.884 318.538 272.002 320.931 269.611C323.324 267.219 325.206 264.367 326.466 261.229C327.725 258.09 328.335 254.728 328.259 251.347V242.817C328.243 225.924 332.437 209.293 340.463 194.425C341.026 193.375 341.671 192.405 342.272 191.381C349.796 178.495 360.029 167.395 372.265 158.85C372.699 158.55 373.116 158.21 373.528 157.923C374.524 157.246 375.591 156.684 376.607 156.052C377.266 155.643 377.936 155.252 378.603 154.847L386.012 170.27C349.872 192.63 335.754 238.204 352.942 277.064C370.124 315.92 413.345 336.165 454.214 324.499C495.083 312.834 521.093 272.833 515.159 230.761C509.221 188.694 473.16 157.442 430.656 157.526ZM353.859 63.7045C353.859 51.577 368.782 41.102 387.991 38.6584V88.7548C377.6 87.8005 367.785 83.5576 359.974 76.6433L353.9 63.9956C353.9 63.8964 353.859 63.8005 353.859 63.7045ZM256.99 63.7045H331.516L357.116 114.88H228.867C222.496 114.875 217.334 109.716 217.33 103.351C217.354 81.4666 235.094 63.729 256.99 63.7045ZM63.7319 97.8213H200.262V114.88H46.6656C46.6656 105.46 54.307 97.8213 63.7319 97.8213ZM311.192 251.347C311.258 252.485 311.083 253.623 310.677 254.688C310.272 255.752 309.646 256.719 308.84 257.524C308.034 258.33 307.066 258.957 306.001 259.362C304.936 259.767 303.797 259.942 302.659 259.876H208.861C208.721 258.386 208.754 256.082 208.771 254.266L208.795 242.817C208.874 193.93 179.041 149.954 133.568 131.938H200.262C202.547 131.936 204.809 131.474 206.912 130.579C209.014 129.683 210.915 128.374 212.5 126.728C217.285 130.113 223.003 131.933 228.865 131.938H367.603L371.187 139.402C370.437 139.838 369.704 140.309 368.962 140.759C367.254 141.775 365.548 142.729 363.921 143.82L363.757 143.948C361.195 145.657 358.705 147.548 356.267 149.484C355.492 149.206 354.681 149.042 353.859 148.997H242.927C239.513 149.003 236.135 149.69 232.99 151.017C229.845 152.344 226.997 154.285 224.612 156.726C222.227 159.169 220.355 162.063 219.104 165.237C217.854 168.413 217.25 171.806 217.329 175.218V182.484C217.25 185.896 217.854 189.289 219.104 192.464C220.355 195.64 222.227 198.533 224.612 200.975C226.997 203.417 229.844 205.358 232.99 206.685C236.135 208.011 239.513 208.697 242.927 208.701H316.226C314.583 214.289 311.192 242.817 311.192 242.817V251.347ZM325.426 186.382C325.28 186.644 325.101 186.894 324.954 187.166C324.88 187.312 324.888 187.474 324.821 187.628C324.138 188.939 323.522 190.305 322.884 191.643H242.927C241.757 191.627 240.603 191.375 239.533 190.9C238.463 190.426 237.501 189.742 236.704 188.885C235.906 188.029 235.29 187.021 234.894 185.921C234.497 184.821 234.327 183.652 234.394 182.484V175.218C234.328 174.05 234.498 172.881 234.895 171.781C235.293 170.682 235.908 169.673 236.705 168.817C237.503 167.961 238.465 167.275 239.534 166.801C240.603 166.326 241.757 166.072 242.927 166.055H339.209C334.876 171.267 330.993 176.838 327.601 182.705C326.884 183.967 326.101 185.121 325.425 186.383L325.426 186.382ZM430.656 311.052C400.419 311.097 373.766 291.244 365.162 262.271C356.558 233.297 368.061 202.125 393.429 185.675L408.495 217.064C396.028 228.137 393.716 246.738 403.087 260.526C412.461 274.315 430.61 279.021 445.506 271.517C460.397 264.016 467.418 246.637 461.906 230.903C456.393 215.169 440.061 205.961 423.736 209.384L408.769 178.221C434.411 169.503 462.785 176.763 481.08 196.728C499.38 216.689 504.138 245.575 493.212 270.346C482.284 295.118 457.744 311.089 430.656 311.052ZM430.656 225.76C440.081 225.76 447.723 233.397 447.723 242.817C447.723 252.243 440.081 259.876 430.656 259.876C421.232 259.876 413.591 252.243 413.591 242.817C413.604 239.113 414.84 235.516 417.107 232.585C418.556 233.672 420.313 234.269 422.124 234.289C423.24 234.29 424.346 234.07 425.377 233.641C426.409 233.211 427.345 232.582 428.131 231.79C428.917 230.995 429.538 230.054 429.958 229.019C430.379 227.985 430.59 226.876 430.581 225.76H430.656Z"/>
    </mask>
    <path d="M430.656 157.526C420.656 157.546 410.738 159.337 401.361 162.813L393.974 147.464C404.645 143.355 415.925 141.048 427.352 140.638C428.156 140.638 428.94 140.521 429.752 140.513C446.691 140.33 463.408 144.369 478.393 152.265C480.394 153.294 482.719 153.491 484.864 152.814C487.008 152.138 488.799 150.641 489.846 148.651C490.893 146.661 491.112 144.338 490.454 142.187C489.796 140.037 488.315 138.233 486.335 137.169C469.306 128.211 450.353 123.527 431.11 123.522C430.947 123.522 430.818 123.43 430.656 123.43H429.803C428.285 123.43 426.773 123.592 425.257 123.658C411.979 124.231 398.891 127.029 386.54 131.938L372.578 102.881C380.344 105.214 388.414 106.383 396.524 106.35C401.237 106.35 405.057 102.536 405.057 97.8213V29.5876C405.057 27.3256 404.158 25.1561 402.558 23.5566C400.958 21.957 398.787 21.0585 396.524 21.0585C386.65 20.5502 376.788 22.2811 367.678 26.1214C358.568 29.9617 350.446 35.812 343.917 43.2343L327.406 8.84033C326.71 7.39335 325.621 6.17166 324.263 5.31549C322.904 4.45932 321.332 4.00338 319.726 4H268.527C266.264 4 264.093 4.89861 262.493 6.49815C260.893 8.09769 259.994 10.2671 259.994 12.5292C259.994 14.7913 260.893 16.9607 262.493 18.5602C264.093 20.1598 266.264 21.0585 268.527 21.0585H314.359L326.647 46.646H256.99C245.816 46.6596 234.894 49.9657 225.591 56.1509C216.288 62.3362 209.015 71.1258 204.682 81.4207C203.244 81.0087 201.758 80.7876 200.262 80.7629H63.7319C44.8822 80.7629 29.5994 96.0388 29.5994 114.88C29.642 123.822 36.5827 131.213 45.503 131.821C34.8421 135.984 24.8401 141.666 15.8077 148.693C14.9248 149.383 14.1867 150.239 13.6351 151.215C13.0837 152.19 12.7297 153.264 12.5935 154.375C12.4573 155.487 12.5416 156.615 12.8414 157.694C13.1412 158.773 13.6508 159.783 14.341 160.665C15.7358 162.449 17.7818 163.604 20.0292 163.879C22.2765 164.154 24.5411 163.525 26.3248 162.132C57.1774 138.06 99.0643 133.67 134.242 150.833C169.416 167.991 191.733 203.695 191.729 242.817V254.055C191.226 257.274 191.388 260.56 192.204 263.714C193.02 266.867 194.474 269.821 196.475 272.39C198.113 273.944 200.05 275.147 202.168 275.929C204.286 276.709 206.541 277.052 208.795 276.935H302.659C306.042 277.011 309.405 276.402 312.545 275.142C315.686 273.884 318.538 272.002 320.931 269.611C323.324 267.219 325.206 264.367 326.466 261.229C327.725 258.09 328.335 254.728 328.259 251.347V242.817C328.243 225.924 332.437 209.293 340.463 194.425C341.026 193.375 341.671 192.405 342.272 191.381C349.796 178.495 360.029 167.395 372.265 158.85C372.699 158.55 373.116 158.21 373.528 157.923C374.524 157.246 375.591 156.684 376.607 156.052C377.266 155.643 377.936 155.252 378.603 154.847L386.012 170.27C349.872 192.63 335.754 238.204 352.942 277.064C370.124 315.92 413.345 336.165 454.214 324.499C495.083 312.834 521.093 272.833 515.159 230.761C509.221 188.694 473.16 157.442 430.656 157.526ZM353.859 63.7045C353.859 51.577 368.782 41.102 387.991 38.6584V88.7548C377.6 87.8005 367.785 83.5576 359.974 76.6433L353.9 63.9956C353.9 63.8964 353.859 63.8005 353.859 63.7045ZM256.99 63.7045H331.516L357.116 114.88H228.867C222.496 114.875 217.334 109.716 217.33 103.351C217.354 81.4666 235.094 63.729 256.99 63.7045ZM63.7319 97.8213H200.262V114.88H46.6656C46.6656 105.46 54.307 97.8213 63.7319 97.8213ZM311.192 251.347C311.258 252.485 311.083 253.623 310.677 254.688C310.272 255.752 309.646 256.719 308.84 257.524C308.034 258.33 307.066 258.957 306.001 259.362C304.936 259.767 303.797 259.942 302.659 259.876H208.861C208.721 258.386 208.754 256.082 208.771 254.266L208.795 242.817C208.874 193.93 179.041 149.954 133.568 131.938H200.262C202.547 131.936 204.809 131.474 206.912 130.579C209.014 129.683 210.915 128.374 212.5 126.728C217.285 130.113 223.003 131.933 228.865 131.938H367.603L371.187 139.402C370.437 139.838 369.704 140.309 368.962 140.759C367.254 141.775 365.548 142.729 363.921 143.82L363.757 143.948C361.195 145.657 358.705 147.548 356.267 149.484C355.492 149.206 354.681 149.042 353.859 148.997H242.927C239.513 149.003 236.135 149.69 232.99 151.017C229.845 152.344 226.997 154.285 224.612 156.726C222.227 159.169 220.355 162.063 219.104 165.237C217.854 168.413 217.25 171.806 217.329 175.218V182.484C217.25 185.896 217.854 189.289 219.104 192.464C220.355 195.64 222.227 198.533 224.612 200.975C226.997 203.417 229.844 205.358 232.99 206.685C236.135 208.011 239.513 208.697 242.927 208.701H316.226C314.583 214.289 311.192 242.817 311.192 242.817V251.347ZM325.426 186.382C325.28 186.644 325.101 186.894 324.954 187.166C324.88 187.312 324.888 187.474 324.821 187.628C324.138 188.939 323.522 190.305 322.884 191.643H242.927C241.757 191.627 240.603 191.375 239.533 190.9C238.463 190.426 237.501 189.742 236.704 188.885C235.906 188.029 235.29 187.021 234.894 185.921C234.497 184.821 234.327 183.652 234.394 182.484V175.218C234.328 174.05 234.498 172.881 234.895 171.781C235.293 170.682 235.908 169.673 236.705 168.817C237.503 167.961 238.465 167.275 239.534 166.801C240.603 166.326 241.757 166.072 242.927 166.055H339.209C334.876 171.267 330.993 176.838 327.601 182.705C326.884 183.967 326.101 185.121 325.425 186.383L325.426 186.382ZM430.656 311.052C400.419 311.097 373.766 291.244 365.162 262.271C356.558 233.297 368.061 202.125 393.429 185.675L408.495 217.064C396.028 228.137 393.716 246.738 403.087 260.526C412.461 274.315 430.61 279.021 445.506 271.517C460.397 264.016 467.418 246.637 461.906 230.903C456.393 215.169 440.061 205.961 423.736 209.384L408.769 178.221C434.411 169.503 462.785 176.763 481.08 196.728C499.38 216.689 504.138 245.575 493.212 270.346C482.284 295.118 457.744 311.089 430.656 311.052ZM430.656 225.76C440.081 225.76 447.723 233.397 447.723 242.817C447.723 252.243 440.081 259.876 430.656 259.876C421.232 259.876 413.591 252.243 413.591 242.817C413.604 239.113 414.84 235.516 417.107 232.585C418.556 233.672 420.313 234.269 422.124 234.289C423.24 234.29 424.346 234.07 425.377 233.641C426.409 233.211 427.345 232.582 428.131 231.79C428.917 230.995 429.538 230.054 429.958 229.019C430.379 227.985 430.59 226.876 430.581 225.76H430.656Z" fill="black"/>
    <path d="M313.178 243.055L313.216 242.737L309.244 242.263L309.206 242.58L313.178 243.055ZM430.656 157.526L430.648 153.526L430.648 153.526L430.656 157.526ZM401.361 162.813L397.756 164.548L399.336 167.83L402.751 166.564L401.361 162.813ZM393.974 147.464L392.537 143.731L388.489 145.29L390.37 149.198L393.974 147.464ZM427.352 140.638V136.638H427.281L427.209 136.641L427.352 140.638ZM429.752 140.513L429.792 144.513L429.796 144.513L429.752 140.513ZM478.393 152.265L476.528 155.804L476.546 155.814L476.564 155.823L478.393 152.265ZM490.454 142.187L494.279 141.017L494.279 141.017L490.454 142.187ZM486.335 137.169L488.228 133.645L488.212 133.637L488.197 133.629L486.335 137.169ZM431.11 123.522L431.111 119.522H431.11V123.522ZM425.257 123.658L425.43 127.654L425.431 127.654L425.257 123.658ZM386.54 131.938L382.935 133.671L384.55 137.033L388.017 135.655L386.54 131.938ZM372.578 102.881L373.729 99.0504L365.047 96.4427L368.973 104.614L372.578 102.881ZM396.524 106.35V102.35H396.516L396.508 102.35L396.524 106.35ZM396.524 21.0585L396.318 25.0532L396.421 25.0585H396.524V21.0585ZM367.678 26.1214L366.125 22.4355L366.125 22.4355L367.678 26.1214ZM343.917 43.2343L340.311 44.9654L342.927 50.4157L346.92 45.8762L343.917 43.2343ZM327.406 8.84033L331.012 7.10926L331.011 7.10648L327.406 8.84033ZM324.263 5.31549L326.396 1.93185L326.395 1.93113L324.263 5.31549ZM319.726 4L319.734 0H319.726V4ZM262.493 6.49815L259.665 3.66933L259.665 3.66934L262.493 6.49815ZM314.359 21.0585L317.965 19.3269L316.876 17.0585H314.359V21.0585ZM326.647 46.646V50.646H333.005L330.253 44.9144L326.647 46.646ZM256.99 46.646L256.99 42.646L256.985 42.646L256.99 46.646ZM225.591 56.1509L223.376 52.8198L223.376 52.82L225.591 56.1509ZM204.682 81.4207L203.58 85.266L206.992 86.2435L208.369 82.9724L204.682 81.4207ZM200.262 80.7629L200.328 76.7635L200.295 76.7629H200.262V80.7629ZM29.5994 114.88H25.5994V114.89L25.5995 114.899L29.5994 114.88ZM45.503 131.821L46.958 135.547L45.7748 127.83L45.503 131.821ZM15.8077 148.693L13.3516 145.536L13.3453 145.541L15.8077 148.693ZM13.6351 151.215L17.1164 153.185L17.1172 153.183L13.6351 151.215ZM12.8414 157.694L16.6955 156.623L16.6952 156.622L12.8414 157.694ZM14.341 160.665L11.1902 163.13L11.1904 163.13L14.341 160.665ZM26.3248 162.132L23.8642 158.978L23.8624 158.98L26.3248 162.132ZM134.242 150.833L132.488 154.428L132.488 154.428L134.242 150.833ZM191.729 242.817L187.729 242.817V242.817H191.729ZM191.729 254.055L195.681 254.673L195.729 254.366V254.055H191.729ZM196.475 272.39L193.319 274.848L193.504 275.086L193.723 275.293L196.475 272.39ZM202.168 275.929L200.783 279.681L200.785 279.682L202.168 275.929ZM208.795 276.935V272.935H208.691L208.588 272.941L208.795 276.935ZM302.659 276.935L302.749 272.936L302.704 272.935H302.659V276.935ZM312.545 275.142L311.058 271.429L311.056 271.43L312.545 275.142ZM320.931 269.611L323.758 272.44L323.759 272.44L320.931 269.611ZM326.466 261.229L330.178 262.719L330.178 262.718L326.466 261.229ZM328.259 251.347H324.259V251.392L324.26 251.437L328.259 251.347ZM328.259 242.817L332.259 242.817L332.259 242.814L328.259 242.817ZM340.463 194.425L343.983 196.326L343.988 196.315L340.463 194.425ZM342.272 191.381L345.722 193.405L345.726 193.398L342.272 191.381ZM372.265 158.85L369.992 155.559L369.983 155.565L369.975 155.571L372.265 158.85ZM373.528 157.923L371.28 154.614L371.261 154.627L371.243 154.64L373.528 157.923ZM376.607 156.052L374.499 152.653L374.493 152.656L376.607 156.052ZM378.603 154.847L382.209 153.115L380.299 149.139L376.528 151.428L378.603 154.847ZM386.012 170.27L388.117 173.671L391.175 171.779L389.618 168.538L386.012 170.27ZM352.942 277.064L356.6 275.446L356.6 275.446L352.942 277.064ZM454.214 324.499L453.116 320.652L453.116 320.652L454.214 324.499ZM515.159 230.761L519.12 230.203L519.12 230.202L515.159 230.761ZM387.991 38.6584H391.991V34.1173L387.486 34.6904L387.991 38.6584ZM387.991 88.7548L387.625 92.7381L391.991 93.139V88.7548H387.991ZM359.974 76.6433L356.369 78.3751L356.718 79.1031L357.323 79.6384L359.974 76.6433ZM353.9 63.9956H349.9V64.9064L350.294 65.7274L353.9 63.9956ZM256.99 63.7045L256.99 59.7045L256.986 59.7045L256.99 63.7045ZM331.516 63.7045L335.093 61.915L333.988 59.7045H331.516V63.7045ZM357.116 114.88V118.88H363.589L360.693 113.091L357.116 114.88ZM228.867 114.88L228.863 118.88H228.867V114.88ZM217.33 103.351L213.33 103.347L213.33 103.354L217.33 103.351ZM200.262 97.8213H204.262V93.8213H200.262V97.8213ZM200.262 114.88V118.88H204.262V114.88H200.262ZM46.6656 114.88H42.6656V118.88H46.6656V114.88ZM311.192 251.347H307.192V251.463L307.199 251.579L311.192 251.347ZM310.677 254.688L306.94 253.262L306.939 253.265L310.677 254.688ZM306.001 259.362L304.58 255.623L304.577 255.624L306.001 259.362ZM302.659 259.876L302.891 255.883L302.775 255.876H302.659V259.876ZM208.861 259.876L204.878 260.25L205.219 263.876H208.861V259.876ZM208.771 254.266L212.771 254.303L212.771 254.289L212.771 254.274L208.771 254.266ZM208.795 242.817L212.795 242.826L212.795 242.824L208.795 242.817ZM133.568 131.938V127.938L132.095 135.657L133.568 131.938ZM200.262 131.938L200.262 135.938L200.265 135.938L200.262 131.938ZM206.912 130.579L208.479 134.259L208.48 134.259L206.912 130.579ZM212.5 126.728L214.81 123.462L212.003 121.476L209.618 123.953L212.5 126.728ZM228.865 131.938L228.861 135.938H228.865V131.938ZM367.603 131.938L371.209 130.207L370.12 127.938H367.603V131.938ZM371.187 139.402L373.2 142.858L376.392 140.999L374.793 137.67L371.187 139.402ZM368.962 140.759L371.008 144.196L371.022 144.188L371.036 144.18L368.962 140.759ZM363.921 143.82L361.693 140.499L361.574 140.578L361.461 140.667L363.921 143.82ZM363.757 143.948L365.976 147.276L366.1 147.194L366.218 147.102L363.757 143.948ZM356.267 149.484L354.917 153.249L357.011 154L358.754 152.616L356.267 149.484ZM353.859 148.997L354.077 145.003L353.968 144.997H353.859V148.997ZM242.927 148.997L242.927 144.997L242.92 144.997L242.927 148.997ZM224.612 156.726L221.751 153.931L221.749 153.932L224.612 156.726ZM219.104 165.237L215.382 163.771L215.382 163.772L219.104 165.237ZM217.329 175.218H221.329V175.171L221.328 175.125L217.329 175.218ZM217.329 182.484L221.328 182.577L221.329 182.53V182.484H217.329ZM219.104 192.464L215.382 193.929L215.382 193.93L219.104 192.464ZM232.99 206.685L234.545 202.999L234.544 202.999L232.99 206.685ZM242.927 208.701L242.923 212.701H242.927V208.701ZM316.226 208.701L320.064 209.829L321.571 204.701H316.226V208.701ZM311.192 242.817L307.22 242.345L307.192 242.581V242.817H311.192ZM325.426 186.382L328.92 188.33L322.598 183.554L325.426 186.382ZM324.954 187.166L321.435 185.263L321.41 185.31L321.386 185.357L324.954 187.166ZM324.821 187.628L328.369 189.475L328.433 189.352L328.489 189.224L324.821 187.628ZM322.884 191.643V195.643H325.408L326.494 193.365L322.884 191.643ZM242.927 191.643L242.873 195.642L242.9 195.643H242.927V191.643ZM239.533 190.9L241.156 187.244L241.153 187.243L239.533 190.9ZM236.704 188.885L239.633 186.16L239.63 186.157L236.704 188.885ZM234.894 185.921L238.658 184.566L238.657 184.564L234.894 185.921ZM234.394 182.484L238.388 182.713L238.394 182.599V182.484H234.394ZM234.394 175.218H238.394V175.105L238.388 174.992L234.394 175.218ZM234.895 171.781L231.134 170.42L231.133 170.423L234.895 171.781ZM236.705 168.817L233.78 166.088L233.777 166.092L236.705 168.817ZM242.927 166.055V162.055H242.898L242.869 162.055L242.927 166.055ZM339.209 166.055L342.285 168.612L347.735 162.055H339.209V166.055ZM327.601 182.705L324.138 180.703L324.13 180.716L324.123 180.73L327.601 182.705ZM325.425 186.383L321.899 184.495L328.253 189.212L325.425 186.383ZM430.656 311.052L430.662 307.052L430.65 307.052L430.656 311.052ZM365.162 262.271L368.997 261.133L368.997 261.132L365.162 262.271ZM393.429 185.675L397.035 183.944L395.068 179.845L391.253 182.318L393.429 185.675ZM408.495 217.064L411.151 220.054L413.406 218.052L412.101 215.333L408.495 217.064ZM403.087 260.526L399.778 262.774L399.779 262.775L403.087 260.526ZM445.506 271.517L443.707 267.944L443.706 267.945L445.506 271.517ZM461.906 230.903L465.681 229.581L465.681 229.58L461.906 230.903ZM423.736 209.384L420.131 211.116L421.488 213.943L424.557 213.299L423.736 209.384ZM408.769 178.221L407.481 174.434L403.21 175.886L405.163 179.953L408.769 178.221ZM481.08 196.728L478.13 199.431L478.131 199.432L481.08 196.728ZM493.212 270.346L496.872 271.961L496.872 271.961L493.212 270.346ZM413.591 242.817L409.591 242.803V242.817H413.591ZM417.107 232.585L419.506 229.385L416.354 227.021L413.943 230.138L417.107 232.585ZM422.124 234.289L422.079 238.288L422.1 238.288L422.12 238.288L422.124 234.289ZM425.377 233.641L426.914 237.334L426.915 237.333L425.377 233.641ZM428.131 231.79L430.972 234.606L430.975 234.603L428.131 231.79ZM429.958 229.019L426.253 227.511L426.252 227.514L429.958 229.019ZM430.581 225.76V221.76H426.549L426.582 225.792L430.581 225.76ZM430.648 153.526C420.175 153.547 409.789 155.423 399.97 159.063L402.751 166.564C411.686 163.252 421.136 161.545 430.664 161.526L430.648 153.526ZM404.965 161.079L397.578 145.729L390.37 149.198L397.756 164.548L404.965 161.079ZM395.411 151.197C405.669 147.247 416.511 145.029 427.496 144.635L427.209 136.641C415.338 137.066 403.621 139.463 392.537 143.731L395.411 151.197ZM427.352 144.638C427.928 144.638 428.47 144.596 428.852 144.567C429.28 144.535 429.542 144.515 429.792 144.513L429.713 136.513C429.151 136.519 428.615 136.562 428.246 136.59C427.833 136.621 427.581 136.638 427.352 136.638V144.638ZM429.796 144.513C446.07 144.337 462.131 148.218 476.528 155.804L480.257 148.727C464.685 140.521 447.312 136.323 429.709 136.513L429.796 144.513ZM476.564 155.823C479.502 157.333 482.917 157.623 486.067 156.629L483.66 149C482.52 149.359 481.285 149.255 480.221 148.708L476.564 155.823ZM486.067 156.629C489.217 155.635 491.848 153.437 493.386 150.514L486.306 146.789C485.751 147.845 484.8 148.64 483.66 149L486.067 156.629ZM493.386 150.514C494.924 147.59 495.246 144.178 494.279 141.017L486.629 143.357C486.979 144.499 486.863 145.732 486.306 146.789L493.386 150.514ZM494.279 141.017C493.313 137.858 491.138 135.209 488.228 133.645L484.441 140.692C485.493 141.258 486.28 142.216 486.63 143.358L494.279 141.017ZM488.197 133.629C470.594 124.369 451.003 119.527 431.111 119.522L431.109 127.522C449.704 127.527 468.017 132.053 484.472 140.709L488.197 133.629ZM431.11 119.522C431.45 119.522 431.721 119.571 431.889 119.609C431.971 119.628 432.033 119.646 432.064 119.655C432.091 119.663 432.111 119.669 432.086 119.661C432.075 119.658 432.019 119.64 431.956 119.622C431.889 119.602 431.79 119.574 431.671 119.547C431.428 119.491 431.079 119.43 430.656 119.43V127.43C430.315 127.43 430.042 127.381 429.875 127.342C429.793 127.324 429.731 127.306 429.7 127.297C429.674 127.289 429.655 127.283 429.68 127.291C429.692 127.295 429.748 127.313 429.812 127.331C429.879 127.351 429.979 127.379 430.098 127.406C430.341 127.462 430.69 127.522 431.11 127.522V119.522ZM430.656 119.43H429.803V127.43H430.656V119.43ZM429.803 119.43C428.222 119.43 426.209 119.613 425.084 119.662L425.431 127.654C427.337 127.571 428.348 127.43 429.803 127.43V119.43ZM425.085 119.662C411.359 120.254 397.83 123.147 385.063 128.221L388.017 135.655C399.952 130.912 412.598 128.208 425.43 127.654L425.085 119.662ZM390.145 130.206L376.184 101.149L368.973 104.614L382.935 133.671L390.145 130.206ZM371.428 106.712C379.572 109.158 388.035 110.385 396.54 110.35L396.508 102.35C388.793 102.382 381.116 101.269 373.729 99.0504L371.428 106.712ZM396.524 110.35C403.443 110.35 409.057 104.748 409.057 97.8213H401.057C401.057 100.324 399.031 102.35 396.524 102.35V110.35ZM409.057 97.8213V29.5876H401.057V97.8213H409.057ZM409.057 29.5876C409.057 26.2642 407.736 23.0773 405.386 20.7278L399.73 26.3854C400.58 27.235 401.057 28.387 401.057 29.5876H409.057ZM405.386 20.7278C403.035 18.3778 399.847 17.0585 396.524 17.0585V25.0585C397.727 25.0585 398.88 25.5363 399.73 26.3854L405.386 20.7278ZM396.73 17.0638C386.253 16.5245 375.79 18.3609 366.125 22.4355L369.232 29.8072C377.786 26.2012 387.047 24.5759 396.318 25.0532L396.73 17.0638ZM366.125 22.4355C356.459 26.5101 347.841 32.7173 340.913 40.5925L346.92 45.8762C353.051 38.9067 360.678 33.4133 369.232 29.8072L366.125 22.4355ZM347.523 41.5033L331.012 7.10926L323.8 10.5714L340.311 44.9654L347.523 41.5033ZM331.011 7.10648C329.989 4.98305 328.391 3.18927 326.396 1.93185L322.13 8.69913C322.851 9.15405 323.431 9.80366 323.801 10.5742L331.011 7.10648ZM326.395 1.93113C324.401 0.674529 322.093 0.00497118 319.734 8.8564e-06L319.718 7.99999C320.571 8.00179 321.407 8.24412 322.131 8.69985L326.395 1.93113ZM319.726 0H268.527V8H319.726V0ZM268.527 0C265.204 0 262.016 1.3194 259.665 3.66933L265.321 9.32696C266.17 8.47782 267.324 8 268.527 8V0ZM259.665 3.66934C257.315 6.01883 255.994 9.20575 255.994 12.5292H263.994C263.994 11.3285 264.471 10.1766 265.321 9.32696L259.665 3.66934ZM255.994 12.5292C255.994 15.8527 257.315 19.0396 259.665 21.3891L265.321 15.7314C264.471 14.8818 263.994 13.7299 263.994 12.5292H255.994ZM259.665 21.3891C262.015 23.7389 265.204 25.0585 268.527 25.0585V17.0585C267.324 17.0585 266.17 16.5806 265.321 15.7314L259.665 21.3891ZM268.527 25.0585H314.359V17.0585H268.527V25.0585ZM310.753 22.7901L323.041 48.3776L330.253 44.9144L317.965 19.3269L310.753 22.7901ZM326.647 42.646H256.99V50.646H326.647V42.646ZM256.985 42.646C245.025 42.6606 233.335 46.1993 223.376 52.8198L227.805 59.482C236.454 53.7322 246.607 50.6586 256.995 50.646L256.985 42.646ZM223.376 52.82C213.418 59.4406 205.633 68.849 200.995 79.869L208.369 82.9724C212.396 73.4026 219.157 65.2318 227.805 59.4818L223.376 52.82ZM205.784 77.5754C204.008 77.0668 202.174 76.7939 200.328 76.7635L200.196 84.7624C201.342 84.7813 202.479 84.9506 203.58 85.266L205.784 77.5754ZM200.262 76.7629H63.7319V84.7629H200.262V76.7629ZM63.7319 76.7629C42.6747 76.7629 25.5994 93.8279 25.5994 114.88H33.5994C33.5994 98.2496 47.0896 84.7629 63.7319 84.7629V76.7629ZM25.5995 114.899C25.652 125.938 34.2201 135.062 45.2311 135.812L45.7748 127.83C38.9453 127.365 33.632 121.706 33.5994 114.861L25.5995 114.899ZM44.048 128.095C33.028 132.398 22.6887 138.272 13.3516 145.536L18.2638 151.85C26.9915 145.061 36.6563 139.57 46.958 135.547L44.048 128.095ZM13.3453 145.541C12.0484 146.554 10.9636 147.813 10.1531 149.246L17.1172 153.183C17.4097 152.666 17.8013 152.212 18.2701 151.845L13.3453 145.541ZM10.1539 149.245C9.34317 150.678 8.82327 152.256 8.62322 153.889L16.5638 154.862C16.6362 154.272 16.8241 153.701 17.1164 153.185L10.1539 149.245ZM8.62322 153.889C8.42313 155.522 8.54677 157.18 8.98758 158.765L16.6952 156.622C16.5364 156.051 16.4915 155.452 16.5638 154.862L8.62322 153.889ZM8.98732 158.764C9.42788 160.35 10.1766 161.834 11.1902 163.13L17.4919 158.201C17.1251 157.732 16.8546 157.196 16.6955 156.623L8.98732 158.764ZM11.1904 163.13C13.2392 165.749 16.2442 167.446 19.5435 167.849L20.5148 159.909C19.3194 159.762 18.2324 159.148 17.4917 158.201L11.1904 163.13ZM19.5435 167.849C22.8433 168.253 26.1681 167.33 28.7872 165.284L23.8624 158.98C22.914 159.72 21.7098 160.055 20.5148 159.909L19.5435 167.849ZM28.7853 165.285C58.4329 142.154 98.6843 137.936 132.488 154.428L135.996 147.238C99.4444 129.405 55.9218 133.966 23.8642 158.978L28.7853 165.285ZM132.488 154.428C166.289 170.916 187.733 205.225 187.729 242.817L195.729 242.818C195.733 202.165 172.544 165.066 135.996 147.238L132.488 154.428ZM187.729 242.817V254.055H195.729V242.817H187.729ZM187.777 253.437C187.19 257.196 187.379 261.034 188.332 264.716L196.077 262.712C195.397 260.086 195.263 257.351 195.681 254.673L187.777 253.437ZM188.332 264.716C189.285 268.398 190.982 271.847 193.319 274.848L199.631 269.933C197.966 267.794 196.756 265.336 196.077 262.712L188.332 264.716ZM193.723 275.293C195.755 277.22 198.157 278.712 200.783 279.681L203.553 272.176C201.943 271.582 200.471 270.668 199.227 269.488L193.723 275.293ZM200.785 279.682C203.41 280.65 206.206 281.075 209.002 280.93L208.588 272.941C206.875 273.029 205.161 272.769 203.551 272.176L200.785 279.682ZM208.795 280.935H302.659V272.935H208.795V280.935ZM302.57 280.934C306.492 281.022 310.392 280.315 314.034 278.855L311.056 271.43C308.418 272.488 305.592 273 302.749 272.936L302.57 280.934ZM314.033 278.855C317.676 277.396 320.984 275.213 323.758 272.44L318.104 266.781C316.093 268.791 313.696 270.372 311.058 271.429L314.033 278.855ZM323.759 272.44C326.535 269.665 328.717 266.358 330.178 262.719L322.754 259.738C321.695 262.376 320.114 264.772 318.103 266.782L323.759 272.44ZM330.178 262.718C331.639 259.078 332.346 255.178 332.258 251.257L324.26 251.437C324.324 254.277 323.811 257.103 322.754 259.739L330.178 262.718ZM332.259 251.347V242.817H324.259V251.347H332.259ZM332.259 242.814C332.244 226.585 336.272 210.609 343.983 196.326L336.943 192.525C328.601 207.978 324.242 225.264 324.259 242.821L332.259 242.814ZM343.988 196.315C344.524 195.315 344.948 194.725 345.722 193.405L338.822 189.357C338.394 190.086 337.527 191.435 336.937 192.536L343.988 196.315ZM345.726 193.398C352.958 181.012 362.795 170.343 374.556 162.13L369.975 155.571C357.264 164.447 346.633 175.978 338.817 189.364L345.726 193.398ZM374.539 162.141C374.835 161.936 375.112 161.727 375.315 161.574C375.542 161.403 375.684 161.296 375.814 161.205L371.243 154.64C370.961 154.836 370.688 155.043 370.495 155.189C370.278 155.353 370.129 155.464 369.992 155.559L374.539 162.141ZM375.776 161.231C376.761 160.562 377.299 160.333 378.722 159.447L374.493 152.656C373.884 153.035 372.287 153.93 371.28 154.614L375.776 161.231ZM378.716 159.451C379.371 159.044 379.914 158.731 380.679 158.267L376.528 151.428C375.959 151.773 375.161 152.241 374.499 152.653L378.716 159.451ZM374.998 156.579L382.407 172.002L389.618 168.538L382.209 153.115L374.998 156.579ZM383.908 166.868C346.07 190.279 331.287 237.994 349.283 278.682L356.6 275.446C340.22 238.413 353.673 194.982 388.117 173.671L383.908 166.868ZM349.283 278.682C367.274 319.364 412.524 340.559 455.312 328.345L453.116 320.652C414.165 331.771 372.975 312.476 356.6 275.446L349.283 278.682ZM455.312 328.345C498.1 316.133 525.333 274.253 519.12 230.203L511.198 231.32C516.853 271.414 492.067 309.535 453.116 320.652L455.312 328.345ZM519.12 230.202C512.903 186.157 475.146 153.438 430.648 153.526L430.664 161.526C471.173 161.446 505.54 191.231 511.198 231.32L519.12 230.202ZM357.859 63.7045C357.859 59.3916 360.526 54.8024 366.067 50.7898C371.56 46.8128 379.427 43.7801 388.496 42.6264L387.486 34.6904C377.346 35.9804 368.147 39.4069 361.376 44.3102C354.653 49.1778 349.859 55.8899 349.859 63.7045H357.859ZM383.991 38.6584V88.7548H391.991V38.6584H383.991ZM388.357 84.7716C378.813 83.8951 369.799 79.9982 362.626 73.6482L357.323 79.6384C365.772 87.117 376.387 91.7059 387.625 92.7381L388.357 84.7716ZM363.58 74.9114L357.505 62.2637L350.294 65.7274L356.369 78.3751L363.58 74.9114ZM357.9 63.9956C357.9 63.6995 357.869 63.4567 357.845 63.3005C357.832 63.2211 357.82 63.1548 357.811 63.1096C357.802 63.067 357.794 63.0293 357.792 63.02C357.789 63.0023 357.791 63.0149 357.794 63.0309C357.798 63.0498 357.806 63.0909 357.815 63.1452C357.832 63.2503 357.859 63.4494 357.859 63.7045H349.859C349.859 64.0077 349.891 64.2547 349.915 64.4079C349.928 64.4862 349.94 64.5513 349.949 64.5944C349.957 64.6345 349.965 64.6712 349.966 64.6777C349.969 64.6926 349.966 64.6792 349.963 64.6608C349.958 64.6399 349.95 64.598 349.942 64.543C349.925 64.4357 349.9 64.2421 349.9 63.9956H357.9ZM256.99 67.7045H331.516V59.7045H256.99V67.7045ZM327.939 65.494L353.538 116.67L360.693 113.091L335.093 61.915L327.939 65.494ZM357.116 110.88H228.867V118.88H357.116V110.88ZM228.87 110.88C224.703 110.877 221.332 107.503 221.33 103.349L213.33 103.354C213.335 111.928 220.288 118.873 228.863 118.88L228.87 110.88ZM221.33 103.356C221.351 83.6778 237.303 67.7265 256.995 67.7045L256.986 59.7045C232.885 59.7315 213.356 79.2553 213.33 103.347L221.33 103.356ZM63.7319 101.821H200.262V93.8213H63.7319V101.821ZM196.262 97.8213V114.88H204.262V97.8213H196.262ZM200.262 110.88H46.6656V118.88H200.262V110.88ZM50.6656 114.88C50.6656 107.67 56.5146 101.821 63.7319 101.821V93.8213C52.0995 93.8213 42.6656 103.249 42.6656 114.88H50.6656ZM307.199 251.579C307.232 252.154 307.144 252.728 306.94 253.262L314.415 256.113C315.023 254.519 315.284 252.815 315.186 251.116L307.199 251.579ZM306.939 253.265C306.735 253.801 306.419 254.289 306.012 254.695L311.668 260.354C312.873 259.149 313.81 257.703 314.416 256.11L306.939 253.265ZM306.012 254.695C305.605 255.103 305.116 255.419 304.58 255.623L307.423 263.101C309.016 262.495 310.463 261.558 311.668 260.354L306.012 254.695ZM304.577 255.624C304.042 255.828 303.467 255.916 302.891 255.883L302.428 263.87C304.128 263.968 305.831 263.707 307.426 263.099L304.577 255.624ZM302.659 255.876H208.861V263.876H302.659V255.876ZM212.843 259.502C212.728 258.272 212.753 256.232 212.771 254.303L204.771 254.229C204.755 255.932 204.714 258.501 204.878 260.25L212.843 259.502ZM212.771 254.274L212.795 242.826L204.795 242.809L204.771 254.258L212.771 254.274ZM212.795 242.824C212.876 192.293 182.041 146.84 135.041 128.219L132.095 135.657C176.041 153.068 204.871 195.567 204.795 242.811L212.795 242.824ZM133.568 135.938H200.262V127.938H133.568V135.938ZM200.265 135.938C203.087 135.936 205.881 135.365 208.479 134.259L205.345 126.899C203.737 127.583 202.007 127.937 200.258 127.938L200.265 135.938ZM208.48 134.259C211.075 133.153 213.423 131.536 215.381 129.502L209.618 123.953C208.407 125.212 206.953 126.213 205.344 126.899L208.48 134.259ZM210.189 129.993C215.649 133.856 222.173 135.932 228.861 135.938L228.868 127.938C223.832 127.934 218.92 126.37 214.81 123.462L210.189 129.993ZM228.865 135.938H367.603V127.938H228.865V135.938ZM363.998 133.67L367.581 141.133L374.793 137.67L371.209 130.207L363.998 133.67ZM369.174 135.945C368.403 136.394 367.493 136.972 366.889 137.338L371.036 144.18C371.916 143.646 372.471 143.283 373.2 142.858L369.174 135.945ZM366.917 137.322C365.333 138.264 363.44 139.327 361.693 140.499L366.15 147.142C367.657 146.131 369.176 145.287 371.008 144.196L366.917 137.322ZM361.461 140.667L361.297 140.794L366.218 147.102L366.382 146.974L361.461 140.667ZM361.538 140.62C358.845 142.416 356.257 144.384 353.779 146.351L358.754 152.616C361.152 150.712 363.546 148.897 365.976 147.276L361.538 140.62ZM357.617 145.718C356.477 145.31 355.285 145.069 354.077 145.003L353.64 152.991C354.076 153.015 354.506 153.102 354.917 153.249L357.617 145.718ZM353.859 144.997H242.927V152.997H353.859V144.997ZM242.92 144.997C238.974 145.004 235.07 145.798 231.435 147.332L234.546 154.702C237.201 153.582 240.052 153.002 242.934 152.997L242.92 144.997ZM231.435 147.332C227.8 148.866 224.508 151.109 221.751 153.931L227.473 159.522C229.486 157.462 231.891 155.823 234.546 154.702L231.435 147.332ZM221.749 153.932C218.992 156.756 216.828 160.101 215.382 163.771L222.825 166.704C223.881 164.024 225.461 161.582 227.474 159.521L221.749 153.932ZM215.382 163.772C213.937 167.443 213.238 171.366 213.33 175.31L221.328 175.125C221.261 172.247 221.771 169.383 222.826 166.702L215.382 163.772ZM213.329 175.218V182.484H221.329V175.218H213.329ZM213.33 182.392C213.238 186.337 213.937 190.259 215.382 193.929L222.826 190.999C221.771 188.319 221.261 185.456 221.328 182.577L213.33 182.392ZM215.382 193.93C216.828 197.601 218.992 200.947 221.75 203.77L227.473 198.18C225.461 196.12 223.881 193.679 222.825 190.998L215.382 193.93ZM221.75 203.77C224.507 206.593 227.799 208.837 231.436 210.37L234.544 202.999C231.89 201.88 229.486 200.241 227.473 198.18L221.75 203.77ZM231.436 210.37C235.071 211.903 238.976 212.696 242.923 212.701L242.932 204.701C240.051 204.697 237.2 204.119 234.545 202.999L231.436 210.37ZM242.927 212.701H316.226V204.701H242.927V212.701ZM312.389 207.572C311.892 209.262 311.336 212.357 310.796 215.762C310.24 219.268 309.657 223.393 309.129 227.322C308.6 231.254 308.123 235.009 307.778 237.779C307.606 239.164 307.467 240.305 307.37 241.099C307.322 241.496 307.285 241.807 307.259 242.019C307.246 242.125 307.237 242.206 307.23 242.261C307.227 242.289 307.224 242.309 307.223 242.324C307.222 242.331 307.221 242.336 307.221 242.34C307.221 242.341 307.22 242.343 307.22 242.344C307.22 242.344 307.22 242.345 307.22 242.345C307.22 242.345 307.22 242.345 311.192 242.817C315.164 243.29 315.164 243.29 315.164 243.289C315.164 243.289 315.164 243.289 315.164 243.289C315.164 243.288 315.165 243.287 315.165 243.285C315.165 243.282 315.166 243.277 315.167 243.27C315.168 243.257 315.171 243.236 315.174 243.21C315.18 243.156 315.19 243.077 315.202 242.972C315.227 242.764 315.264 242.456 315.312 242.062C315.408 241.275 315.546 240.143 315.717 238.766C316.06 236.013 316.533 232.286 317.057 228.388C317.582 224.486 318.155 220.431 318.697 217.016C319.255 213.5 319.739 210.934 320.064 209.829L312.389 207.572ZM307.192 242.817V251.347H315.192V242.817H307.192ZM321.932 184.434C321.932 184.434 321.925 184.448 321.903 184.484C321.878 184.524 321.853 184.564 321.806 184.639C321.728 184.762 321.58 184.996 321.435 185.263L328.473 189.068C328.47 189.072 328.475 189.063 328.493 189.034C328.512 189.003 328.535 188.966 328.575 188.902C328.638 188.802 328.784 188.574 328.92 188.33L321.932 184.434ZM321.386 185.357C321.22 185.686 321.121 185.982 321.061 186.196C321.004 186.396 320.971 186.568 320.963 186.607C320.947 186.688 320.961 186.614 320.98 186.536C321.005 186.437 321.057 186.254 321.153 186.031L328.489 189.224C328.619 188.925 328.694 188.663 328.739 188.486C328.761 188.398 328.777 188.323 328.788 188.274C328.797 188.231 328.806 188.182 328.807 188.18C328.81 188.166 328.806 188.183 328.801 188.209C328.794 188.238 328.782 188.291 328.762 188.36C328.724 188.498 328.652 188.719 328.522 188.975L321.386 185.357ZM321.273 185.78C320.548 187.174 319.861 188.689 319.274 189.92L326.494 193.365C327.183 191.922 327.729 190.704 328.369 189.475L321.273 185.78ZM322.884 187.643H242.927V195.643H322.884V187.643ZM242.982 187.643C242.35 187.634 241.73 187.499 241.156 187.244L237.911 194.556C239.477 195.251 241.164 195.619 242.873 195.642L242.982 187.643ZM241.153 187.243C240.576 186.987 240.06 186.619 239.633 186.16L233.776 191.61C234.943 192.864 236.35 193.865 237.914 194.558L241.153 187.243ZM239.63 186.157C239.201 185.697 238.87 185.155 238.658 184.566L231.131 187.277C231.711 188.887 232.612 190.362 233.779 191.613L239.63 186.157ZM238.657 184.564C238.443 183.972 238.352 183.342 238.388 182.713L230.401 182.255C230.303 183.961 230.552 185.67 231.132 187.279L238.657 184.564ZM238.394 182.484V175.218H230.394V182.484H238.394ZM238.388 174.992C238.352 174.361 238.444 173.73 238.658 173.14L231.133 170.423C230.552 172.031 230.304 173.74 230.401 175.443L238.388 174.992ZM238.657 173.143C238.872 172.547 239.205 172.003 239.634 171.541L233.777 166.092C232.612 167.344 231.715 168.816 231.134 170.42L238.657 173.143ZM239.631 171.545C240.062 171.082 240.581 170.712 241.158 170.456L237.911 163.145C236.349 163.838 234.945 164.84 233.78 166.088L239.631 171.545ZM241.158 170.456C241.734 170.2 242.356 170.064 242.985 170.054L242.869 162.055C241.159 162.08 239.472 162.451 237.911 163.145L241.158 170.456ZM242.927 170.055H339.209V162.055H242.927V170.055ZM336.133 163.498C331.655 168.884 327.643 174.64 324.138 180.703L331.064 184.707C334.343 179.035 338.096 173.651 342.285 168.612L336.133 163.498ZM324.123 180.73C323.805 181.288 323.475 181.821 323.086 182.455C322.714 183.064 322.296 183.753 321.899 184.495L328.951 188.272C329.23 187.751 329.542 187.232 329.909 186.633C330.26 186.06 330.679 185.384 331.079 184.68L324.123 180.73ZM328.253 189.212L328.254 189.211L322.598 183.554L322.597 183.555L328.253 189.212ZM430.65 307.052C402.185 307.094 377.096 288.405 368.997 261.133L361.328 263.41C370.437 294.083 398.653 315.1 430.662 315.052L430.65 307.052ZM368.997 261.132C360.897 233.859 371.725 204.516 395.605 189.031L391.253 182.318C364.398 199.733 352.218 232.735 361.328 263.41L368.997 261.132ZM389.823 187.405L404.889 218.795L412.101 215.333L397.035 183.944L389.823 187.405ZM405.838 214.073C391.869 226.482 389.278 247.324 399.778 262.774L406.395 258.278C398.154 246.151 400.187 229.793 411.151 220.054L405.838 214.073ZM399.779 262.775C410.281 278.225 430.616 283.497 447.306 275.089L443.706 267.945C430.604 274.545 414.64 270.406 406.395 258.277L399.779 262.775ZM447.306 275.089C463.989 266.686 471.858 247.212 465.681 229.581L458.131 232.226C462.978 246.062 456.804 261.347 443.707 267.944L447.306 275.089ZM465.681 229.58C459.503 211.949 441.204 201.634 422.916 205.469L424.557 213.299C438.918 210.288 453.282 218.388 458.131 232.226L465.681 229.58ZM427.342 207.653L412.374 176.489L405.163 179.953L420.131 211.116L427.342 207.653ZM410.056 182.008C434.197 173.801 460.908 180.636 478.13 199.431L484.029 194.026C464.661 172.89 434.625 165.206 407.481 174.434L410.056 182.008ZM478.131 199.432C495.359 218.222 499.838 245.414 489.553 268.732L496.872 271.961C508.439 245.737 503.402 215.156 484.028 194.025L478.131 199.432ZM489.553 268.732C479.265 292.051 456.163 307.087 430.662 307.052L430.651 315.052C459.325 315.091 485.303 298.184 496.872 271.961L489.553 268.732ZM430.656 229.76C437.874 229.76 443.723 235.608 443.723 242.817H451.723C451.723 231.186 442.288 221.76 430.656 221.76V229.76ZM443.723 242.817C443.723 250.031 437.875 255.876 430.656 255.876V263.876C442.288 263.876 451.723 254.455 451.723 242.817H443.723ZM430.656 255.876C423.438 255.876 417.591 250.032 417.591 242.817H409.591C409.591 254.454 419.025 263.876 430.656 263.876V255.876ZM417.591 242.831C417.601 240.008 418.543 237.267 420.27 235.033L413.943 230.138C411.137 233.765 409.607 238.218 409.591 242.803L417.591 242.831ZM414.707 235.786C416.836 237.382 419.418 238.259 422.079 238.288L422.168 230.289C421.207 230.278 420.275 229.962 419.506 229.385L414.707 235.786ZM422.12 238.288C423.764 238.29 425.394 237.966 426.914 237.334L423.841 229.948C423.299 230.173 422.717 230.289 422.127 230.289L422.12 238.288ZM426.915 237.333C428.433 236.701 429.812 235.776 430.972 234.606L425.291 228.973C424.879 229.389 424.386 229.721 423.84 229.948L426.915 237.333ZM430.975 234.603C432.131 233.434 433.046 232.048 433.665 230.524L426.252 227.514C426.031 228.059 425.703 228.556 425.288 228.977L430.975 234.603ZM433.663 230.527C434.284 229.001 434.594 227.369 434.581 225.727L426.582 225.792C426.586 226.383 426.474 226.968 426.253 227.511L433.663 230.527ZM430.581 229.76H430.656V221.76H430.581V229.76Z" fill="black" mask="url(#path-3-outside-1_295_19)"/>
</svg>