<svg width="512" height="434" viewBox="0 0 512 434" fill="none" xmlns="http://www.w3.org/2000/svg">
    <path d="M427.969 42.5617H402.978C399.247 42.5617 396.885 44.9247 396.885 47.5357H396.884V128.354C396.884 131.711 400.863 133.452 404.966 133.452C408.945 133.452 413.048 131.712 413.048 128.354V99.5085H426.975C443.387 99.5085 456.194 91.6745 456.194 71.2836V70.5386C456.194 50.1467 443.76 42.5617 427.969 42.5617ZM440.029 72.5276C440.029 82.2255 435.056 86.8265 426.974 86.8265H413.048V56.7366H426.974C435.056 56.7366 440.029 61.3376 440.029 71.0356V72.5276ZM293.068 74.1566C269.464 50.5527 238.082 37.5537 204.701 37.5537C171.32 37.5537 139.938 50.5527 116.335 74.1566C115.657 74.8338 115.12 75.6378 114.753 76.5226C114.387 77.4075 114.198 78.3559 114.198 79.3137C114.198 80.2715 114.387 81.2199 114.753 82.1048C115.12 82.9897 115.657 83.7937 116.334 84.471C117.011 85.1483 117.815 85.6856 118.7 86.0522C119.585 86.4187 120.533 86.6074 121.491 86.6075C122.449 86.6075 123.397 86.4189 124.282 86.0524C125.167 85.6859 125.971 85.1488 126.649 84.4715C147.497 63.6236 175.216 52.1417 204.7 52.1417C234.184 52.1417 261.904 63.6236 282.752 84.4715C283.429 85.1497 284.233 85.6874 285.118 86.054C286.003 86.4205 286.952 86.6087 287.91 86.6075C289.352 86.607 290.762 86.1789 291.961 85.3774C293.16 84.5759 294.095 83.437 294.647 82.1045C295.199 80.772 295.343 79.3058 295.062 77.8911C294.781 76.4765 294.087 75.1769 293.068 74.1566Z" fill="black"/>
    <path d="M262.977 104.247C230.843 72.1136 178.558 72.1136 146.425 104.247C145.098 105.624 144.364 107.466 144.382 109.378C144.399 111.289 145.166 113.118 146.518 114.47C147.87 115.822 149.698 116.589 151.61 116.606C153.522 116.624 155.364 115.89 156.74 114.562C183.186 88.1175 226.216 88.1175 252.662 114.562C253.338 115.241 254.142 115.778 255.027 116.145C255.912 116.512 256.861 116.7 257.819 116.698C259.261 116.698 260.671 116.27 261.87 115.468C263.069 114.667 264.004 113.528 264.556 112.195C265.108 110.863 265.252 109.397 264.971 107.982C264.69 106.567 263.996 105.268 262.977 104.247ZM233.362 133.861C217.558 118.057 191.843 118.057 176.039 133.861C175.362 134.539 174.825 135.343 174.458 136.228C174.091 137.112 173.903 138.061 173.903 139.019C173.903 139.977 174.091 140.925 174.458 141.81C174.825 142.695 175.362 143.499 176.039 144.176C177.407 145.544 179.262 146.313 181.197 146.313C183.131 146.313 184.986 145.544 186.354 144.176C196.471 134.06 212.931 134.06 223.048 144.176C223.724 144.855 224.528 145.393 225.413 145.759C226.298 146.126 227.247 146.314 228.205 146.312C229.648 146.313 231.058 145.885 232.258 145.083C233.457 144.282 234.392 143.143 234.944 141.81C235.496 140.477 235.64 139.011 235.359 137.596C235.077 136.181 234.382 134.881 233.362 133.861ZM358.921 275.918C355.752 274.174 352.664 272.287 349.667 270.263L301.422 237.671C286.78 227.779 269.7 222.551 252.03 222.551H163.479C139.974 222.551 117.859 231.688 101.205 248.278C92.6794 256.781 82.9049 263.932 72.2197 269.483C69.1315 271.078 66.5426 273.493 64.7374 276.463C62.9322 279.433 61.9804 282.843 61.9867 286.319C61.9867 296.785 70.5007 305.299 80.9667 305.299H111.157C113.091 305.299 114.946 304.53 116.314 303.162C117.682 301.794 118.45 299.939 118.45 298.005C118.45 296.07 117.682 294.215 116.314 292.847C114.946 291.479 113.091 290.711 111.157 290.711H80.9667C79.802 290.709 78.6854 290.246 77.8618 289.423C77.0383 288.599 76.575 287.482 76.5737 286.318C76.5737 284.677 77.4807 283.187 78.9417 282.429C90.944 276.194 101.923 268.163 111.5 258.612C125.399 244.764 143.859 237.138 163.478 237.138H183.303V290.711H159.071C157.137 290.711 155.282 291.479 153.914 292.847C152.546 294.215 151.777 296.07 151.777 298.005C151.777 299.939 152.546 301.794 153.914 303.162C155.282 304.53 157.137 305.299 159.071 305.299H359.069C365.065 305.299 369.942 300.421 369.942 294.425C369.942 286.747 365.719 279.655 358.921 275.918ZM197.893 290.712V237.139H252.031C266.727 237.123 281.089 241.519 293.257 249.759L341.502 282.351C344.867 284.624 348.334 286.742 351.893 288.7C352.789 289.191 353.564 289.879 354.158 290.712H197.893ZM215.965 316.387H193.435C191.501 316.387 189.645 317.155 188.278 318.523C186.91 319.891 186.141 321.746 186.141 323.681C186.141 325.615 186.91 327.47 188.278 328.838C189.645 330.206 191.501 330.975 193.435 330.975H215.965C217.9 330.975 219.755 330.206 221.123 328.838C222.491 327.47 223.259 325.615 223.259 323.681C223.259 321.746 222.491 319.891 221.123 318.523C219.755 317.155 217.9 316.387 215.965 316.387Z" fill="black"/>
    <path d="M505.707 310.265L503.403 306.441C494.72 292.032 480.277 281.886 463.778 278.604L444.947 274.859V179.412H493.679C503.713 179.412 511.875 171.249 511.875 161.216V19.1659C511.875 9.13197 503.712 0.970001 493.679 0.970001H351.629C341.595 0.970001 333.433 9.13297 333.433 19.1659V73.0507C333.433 74.9852 334.201 76.8404 335.569 78.2083C336.937 79.5762 338.792 80.3447 340.727 80.3447C342.661 80.3447 344.516 79.5762 345.884 78.2083C347.252 76.8404 348.021 74.9852 348.021 73.0507V19.1659C348.022 18.2091 348.402 17.2917 349.079 16.6152C349.755 15.9386 350.673 15.558 351.63 15.5569H493.681C494.638 15.558 495.555 15.9386 496.232 16.6152C496.908 17.2917 497.289 18.2091 497.29 19.1659V161.217C497.289 162.174 496.908 163.092 496.232 163.768C495.555 164.445 494.638 164.825 493.681 164.826H351.629C350.672 164.825 349.754 164.445 349.078 163.768C348.401 163.092 348.021 162.174 348.02 161.217V120.469C348.02 118.534 347.251 116.679 345.883 115.311C344.515 113.943 342.66 113.175 340.726 113.175C338.791 113.175 336.936 113.943 335.568 115.311C334.2 116.679 333.432 118.534 333.432 120.469V161.217C333.432 171.251 341.595 179.413 351.628 179.413H406.888V267.292L397.208 265.367C383.848 262.71 370.824 254.647 362.188 248.812L313.944 216.221C295.589 203.822 274.18 197.268 252.03 197.268H163.48C134.015 197.268 106.293 208.721 85.4197 229.516C72.2527 242.653 55.5459 251.672 37.3389 255.472L26.8669 257.665C11.299 260.925 0 274.837 0 290.743V361.383C0.00219635 365.511 1.20059 369.55 3.45021 373.012C5.69983 376.473 8.90429 379.209 12.6759 380.888L41.7278 393.799C43.5365 403.297 48.1646 412.029 55.0088 418.857C64.4417 428.29 76.8327 433.007 89.2246 433.007C101.617 433.007 114.007 428.29 123.441 418.857C129.3 413.008 133.549 405.744 135.776 397.77H378.012C380.239 405.744 384.489 413.008 390.348 418.857C399.488 427.996 411.638 433.03 424.564 433.03C437.489 433.03 449.641 427.997 458.781 418.857C464.64 413.008 468.89 405.744 471.117 397.77H484.954C499.867 397.77 512 385.638 512 370.725V332.893C511.998 324.918 509.822 317.095 505.707 310.265ZM421.476 179.412H430.36V271.958L421.476 270.191V179.412ZM113.125 408.543C106.741 414.927 98.2526 418.443 89.2236 418.443C80.1947 418.443 71.7067 414.927 65.3227 408.543C55.0818 398.302 52.8038 383.074 58.4778 370.608L58.6138 370.307C58.7868 369.937 58.9698 369.571 59.1568 369.207C59.5226 368.494 59.9139 367.796 60.3298 367.112C60.4968 366.837 60.6658 366.563 60.8418 366.292C61.0008 366.047 61.1648 365.805 61.3308 365.564C61.4948 365.325 61.6578 365.085 61.8278 364.85C62.0228 364.581 62.2258 364.317 62.4298 364.053C62.5888 363.847 62.7438 363.639 62.9078 363.436C63.1478 363.139 63.3987 362.849 63.6487 362.559C63.7917 362.394 63.9287 362.225 64.0747 362.062C64.4467 361.649 64.8297 361.244 65.2237 360.847C65.2577 360.813 65.2887 360.777 65.3227 360.743C65.3977 360.668 65.4767 360.598 65.5527 360.524C65.8867 360.196 66.2227 359.872 66.5657 359.561C66.6547 359.48 66.7487 359.405 66.8387 359.325C67.1807 359.022 67.5247 358.721 67.8767 358.434L67.9777 358.355C80.3407 348.35 98.1716 348.362 110.52 358.395L110.564 358.429C110.941 358.736 111.31 359.058 111.677 359.384C111.743 359.442 111.811 359.497 111.876 359.556C112.3 359.939 112.716 360.334 113.124 360.742C113.564 361.182 113.988 361.635 114.4 362.094C114.581 362.296 114.752 362.503 114.927 362.708C115.141 362.958 115.356 363.209 115.562 363.464C115.793 363.751 116.016 364.043 116.236 364.335C116.633 364.86 117.015 365.396 117.381 365.944L117.508 366.137C126.088 379.242 124.628 397.039 113.125 408.543ZM448.464 408.543C442.079 414.927 433.591 418.443 424.562 418.443C415.533 418.443 407.046 414.927 400.662 408.543C389.157 397.039 387.697 379.238 396.278 366.135L396.402 365.947C396.653 365.569 396.914 365.196 397.182 364.826C397.301 364.662 397.423 364.5 397.546 364.339C397.767 364.045 397.991 363.752 398.224 363.463C398.429 363.21 398.641 362.962 398.854 362.714C399.031 362.507 399.204 362.297 399.387 362.094C399.799 361.635 400.223 361.183 400.663 360.743C407.047 354.359 415.534 350.843 424.563 350.843C433.592 350.843 442.08 354.359 448.464 360.743C448.904 361.183 449.328 361.636 449.74 362.095C449.922 362.297 450.093 362.505 450.269 362.711C450.483 362.96 450.697 363.21 450.902 363.464C451.134 363.752 451.357 364.044 451.578 364.337C452.022 364.922 452.446 365.523 452.849 366.137C461.427 379.241 459.967 397.04 448.464 408.543ZM497.413 370.725H497.411C497.411 377.595 491.822 383.183 484.952 383.183H472.944C472.658 372.605 468.924 362.512 462.204 354.237C462.159 354.181 462.116 354.123 462.07 354.067C461.651 353.559 461.223 353.06 460.785 352.569C460.673 352.443 460.567 352.313 460.454 352.187C459.987 351.675 459.51 351.173 459.022 350.681C458.939 350.597 458.863 350.509 458.779 350.426C452.495 344.143 444.788 339.8 436.385 337.7C432.518 336.736 428.548 336.25 424.562 336.254C421.331 336.254 418.148 336.569 415.048 337.183C405.749 339.027 397.201 343.572 390.346 350.426C390.264 350.508 390.189 350.594 390.108 350.677C389.618 351.174 389.136 351.676 388.671 352.189C388.561 352.31 388.459 352.436 388.351 352.558C387.909 353.056 387.473 353.558 387.054 354.07C387.012 354.121 386.973 354.174 386.931 354.226C380.207 362.502 376.469 372.601 376.182 383.185H137.604C137.317 372.588 133.571 362.477 126.83 354.194L126.738 354.077C126.295 353.538 125.841 353.009 125.376 352.49C125.29 352.394 125.21 352.295 125.123 352.199C122.382 349.164 119.268 346.489 115.856 344.236C107.81 338.93 98.5166 336.277 89.2236 336.277C76.8327 336.277 64.4407 340.994 55.0078 350.427C54.4717 350.965 53.9482 351.516 53.4378 352.079C53.2868 352.245 53.1418 352.414 52.9928 352.581C52.4741 353.167 51.969 353.764 51.4778 354.374C51.1208 354.819 50.7728 355.269 50.4328 355.724C50.3268 355.866 50.2178 356.005 50.1148 356.148C49.2048 357.394 48.3551 358.684 47.5688 360.012L47.5038 360.124C47.1213 360.774 46.7541 361.434 46.4028 362.102L46.3718 362.16C43.8229 367.003 42.1194 372.245 41.3348 377.662L18.6019 367.558C17.408 367.026 16.3936 366.16 15.6814 365.064C14.9692 363.968 14.5898 362.69 14.5889 361.383V290.743C14.5889 281.702 21.0119 273.795 29.8609 271.941L40.3328 269.748C61.306 265.37 80.5509 254.981 95.7186 239.849C113.839 221.796 137.904 211.854 163.483 211.854H252.033C271.262 211.854 289.847 217.544 305.781 228.307L354.025 260.898C363.706 267.439 378.421 276.501 394.365 279.673L460.935 292.911C467.12 294.147 472.98 296.658 478.14 300.283C483.301 303.909 487.651 308.57 490.911 313.969L493.215 317.793C495.962 322.35 497.413 327.571 497.413 332.893V370.725Z" fill="black"/>
    <path d="M104.883 368.984C100.699 364.801 95.1387 362.498 89.2237 362.498C86.3146 362.491 83.4328 363.06 80.7451 364.173C78.0574 365.286 75.6172 366.922 73.5658 368.984C71.5031 371.036 69.8678 373.476 68.7545 376.164C67.6412 378.851 67.0719 381.733 67.0798 384.642C67.0719 387.551 67.6412 390.433 68.7545 393.121C69.8678 395.809 71.5031 398.249 73.5658 400.3C75.6173 402.363 78.0577 403.998 80.7456 405.112C83.4334 406.225 86.3154 406.794 89.2247 406.786C92.1339 406.794 95.0157 406.225 97.7034 405.112C100.391 403.998 102.831 402.363 104.883 400.3C113.517 391.666 113.517 377.618 104.883 368.984ZM94.5667 389.985C93.8666 390.689 93.034 391.247 92.1168 391.627C91.1997 392.007 90.2164 392.201 89.2237 392.198C88.2309 392.201 87.2475 392.007 86.3303 391.627C85.4132 391.247 84.5805 390.688 83.8807 389.984C83.1767 389.284 82.6186 388.452 82.2385 387.535C81.8585 386.617 81.6642 385.634 81.6667 384.641C81.6667 382.622 82.4527 380.725 83.8807 379.298C84.5807 378.594 85.4133 378.036 86.3304 377.656C87.2476 377.276 88.231 377.082 89.2237 377.084C91.2417 377.084 93.1397 377.87 94.5667 379.298C97.5127 382.245 97.5127 387.039 94.5667 389.985ZM440.221 368.985C438.17 366.922 435.73 365.287 433.042 364.173C430.354 363.06 427.472 362.49 424.562 362.498C421.653 362.49 418.771 363.06 416.083 364.173C413.395 365.286 410.955 366.922 408.903 368.984C400.27 377.618 400.27 391.666 408.903 400.3C410.955 402.363 413.395 403.998 416.083 405.112C418.771 406.225 421.653 406.794 424.562 406.786C427.471 406.794 430.353 406.225 433.041 405.112C435.729 403.999 438.169 402.364 440.22 400.301C444.403 396.119 446.706 390.558 446.706 384.643C446.706 378.728 444.403 373.167 440.221 368.985ZM429.905 389.986C429.205 390.69 428.373 391.248 427.456 391.628C426.538 392.008 425.555 392.202 424.562 392.199C423.57 392.202 422.586 392.008 421.669 391.628C420.752 391.248 419.919 390.69 419.219 389.986C416.273 387.04 416.273 382.246 419.219 379.3C419.919 378.596 420.752 378.038 421.669 377.658C422.586 377.278 423.57 377.084 424.562 377.086C426.581 377.086 428.478 377.872 429.906 379.3C430.61 380 431.168 380.833 431.548 381.75C431.928 382.667 432.122 383.651 432.119 384.643C432.122 385.636 431.928 386.619 431.548 387.537C431.168 388.454 430.609 389.286 429.905 389.986Z" fill="black"/>
</svg>