<svg xmlns="http://www.w3.org/2000/svg" version="1.1" xmlns:xlink="http://www.w3.org/1999/xlink" width="512" height="512" x="0" y="0" viewBox="0 0 512 512" style="enable-background:new 0 0 512 512" xml:space="preserve" class="">
    <g>
        <path d="M256 412 136.707 286.628C111.391 258.326 96 220.96 96 180c0-88.366 71.634-160 160-160s160 71.634 160 160c0 40.96-15.392 78.326-40.707 106.628L256 412M362.957 412.435 416 492H96l53.053-79.58" style="stroke-width:40;stroke-linecap:round;stroke-linejoin:round;stroke-miterlimit:10;" fill="none" stroke="#000000" stroke-width="40" stroke-linecap="round" stroke-linejoin="round" stroke-miterlimit="10" data-original="#000000" class=""></path>
        <path d="M266 190h-40v-80h40c22.091 0 40 17.909 40 40v0c0 22.091-17.909 40-40 40zM226 270v-80" style="stroke-width:40;stroke-linecap:round;stroke-linejoin:round;stroke-miterlimit:10;" fill="none" stroke="#000000" stroke-width="40" stroke-linecap="round" stroke-linejoin="round" stroke-miterlimit="10" data-original="#000000" class=""></path>
    </g>
</svg>