<svg xmlns="http://www.w3.org/2000/svg" version="1.1" xmlns:xlink="http://www.w3.org/1999/xlink" width="512" height="512" x="0" y="0" viewBox="0 0 512 512" style="enable-background:new 0 0 512 512" xml:space="preserve" class="">
    <g>
        <path fill="#000000" d="M487.9 114.7c-2.4-12-13.1-20.4-25.3-20.1C358.9 98 275.2 8.9 274.4 8.1 269.7 3 263 .1 256 .1c-7 0-13.6 2.9-18.3 8-.9.8-84.7 89.9-188.3 86.6-12.2-.4-22.9 8.1-25.3 20.1-.5 2.6-12.4 64 9.1 143.3 12.6 46.6 34.3 90.2 63.7 128.5 36.8 48 86.3 89.3 147.1 122.5 7.5 4.1 16.5 4.1 23.9 0 60.9-33.2 110.4-74.4 147.1-122.5 29.4-38.3 51.1-81.9 63.7-128.5 21.6-79.4 9.7-140.8 9.2-143.4zM430.6 245C406.7 333.4 348 405.1 256 458.4c-91.1-52.9-149.6-123.9-174-211.2-9.4-33.5-13.1-68.3-11.1-103 85.3-5.8 153.7-56.8 185-84.6 31.3 27.8 99.8 78.9 185.1 84.6 2.1 33.9-1.4 68-10.4 100.8z" opacity="1" data-original="#0063ff" class=""></path>
        <path fill="#000000" d="m328.3 174-107 107-37.6-37.6c-9.3-10.2-25.1-10.9-35.3-1.6s-10.9 25.1-1.6 35.3c.5.6 1 1.1 1.6 1.6l55.2 55.2c9.8 9.7 25.6 9.7 35.3 0l124.7-124.7c9.4-10.1 8.9-25.9-1.2-35.3-9.6-8.9-24.5-8.9-34.1.1z" opacity="1" data-original="#ff982e" class=""></path>
    </g>
</svg>