<svg width="512" height="512" viewBox="0 0 512 512" fill="none" xmlns="http://www.w3.org/2000/svg">
    <g clip-path="url(#clip0_305_49)">
        <path d="M210.249 191.059L210.249 191.059L144.833 125.643L200.643 125.643C204.242 125.643 207.694 124.213 210.239 121.668C212.784 119.123 214.214 115.671 214.214 112.071C214.214 108.472 212.784 105.02 210.239 102.475C207.694 99.9298 204.242 98.5 200.643 98.5L112.071 98.5C108.472 98.5 105.02 99.9298 102.475 102.475C99.9297 105.02 98.4999 108.472 98.4999 112.071L98.4999 200.643C98.4999 204.242 99.9297 207.694 102.475 210.239C105.02 212.784 108.472 214.214 112.071 214.214C115.671 214.214 119.123 212.784 121.668 210.239C124.213 207.694 125.643 204.242 125.643 200.643L125.643 144.833L191.032 210.222C191.032 210.223 191.033 210.223 191.033 210.224C192.292 211.489 193.787 212.493 195.435 213.179C197.082 213.866 198.85 214.221 200.635 214.223C202.42 214.226 204.188 213.876 205.838 213.194C207.487 212.512 208.986 211.512 210.249 210.249L210.249 210.249C212.794 207.704 214.223 204.253 214.223 200.654C214.223 197.055 212.794 193.604 210.249 191.059ZM412.468 405.116L412.472 405.105L412.477 405.093C413.136 403.458 413.483 401.715 413.5 399.952L413.5 399.941L413.5 399.929L413.5 311.357C413.5 307.758 412.07 304.306 409.525 301.761C406.98 299.216 403.528 297.786 399.929 297.786C396.329 297.786 392.877 299.216 390.332 301.761C387.787 304.306 386.357 307.758 386.357 311.357L386.357 367.167L320.965 301.774C319.705 300.513 318.209 299.511 316.562 298.828C314.915 298.144 313.15 297.792 311.367 297.791C307.766 297.788 304.311 299.216 301.763 301.761C299.215 304.305 297.782 307.758 297.78 311.359C297.777 314.96 299.205 318.414 301.75 320.962L301.751 320.964L367.165 386.357L311.357 386.357C307.758 386.357 304.306 387.787 301.761 390.332C299.216 392.877 297.786 396.329 297.786 399.929C297.786 403.528 299.216 406.98 301.761 409.525C304.306 412.07 307.758 413.5 311.357 413.5L399.929 413.5L399.932 413.5C402.616 413.496 405.238 412.698 407.469 411.206C409.7 409.714 411.439 407.595 412.468 405.116Z" fill="black" stroke="black" stroke-width="5"/>
        <path d="M64 -2.5L63.997 -2.5C46.3674 -2.47888 29.4659 4.53382 16.9999 16.9999C4.53382 29.4659 -2.47888 46.3674 -2.5 63.997V64V448C-2.5 484.684 27.3431 514.5 64 514.5H448C484.657 514.5 514.5 484.684 514.5 448V64C514.5 27.3162 484.657 -2.5 448 -2.5L64 -2.5ZM483.9 448C483.9 467.791 467.791 483.9 448 483.9H64C44.2095 483.9 28.1 467.791 28.1 448V64C28.1 44.2095 44.2095 28.1 64 28.1H448C467.791 28.1 483.9 44.2095 483.9 64V448Z" fill="black" stroke="black" stroke-width="5"/>
    </g>
    <defs>
        <clipPath id="clip0_305_49">
            <rect width="512" height="512" fill="white"/>
        </clipPath>
    </defs>
</svg>