<svg width="512" height="512" viewBox="0 0 512 512" fill="none" xmlns="http://www.w3.org/2000/svg">
    <path d="M221.286 221.286L221.286 221.286C223.348 219.223 224.507 216.425 224.507 213.509C224.507 210.592 223.348 207.794 221.286 205.732L221.286 205.731L172.055 156.5L213.5 156.5C216.417 156.5 219.215 155.341 221.278 153.278C223.341 151.215 224.5 148.417 224.5 145.5C224.5 142.583 223.341 139.785 221.278 137.722C219.215 135.659 216.417 134.5 213.5 134.5L145.5 134.5C142.583 134.5 139.785 135.659 137.722 137.722C135.659 139.785 134.5 142.583 134.5 145.5L134.5 213.5C134.5 216.417 135.659 219.215 137.722 221.278C139.785 223.341 142.583 224.5 145.5 224.5C148.417 224.5 151.215 223.341 153.278 221.278C155.341 219.215 156.5 216.417 156.5 213.5L156.5 172.055L205.71 221.264C205.71 221.265 205.711 221.265 205.711 221.266C206.731 222.291 207.943 223.105 209.278 223.661C210.614 224.217 212.046 224.505 213.493 224.507C214.94 224.509 216.373 224.225 217.71 223.673C219.047 223.12 220.262 222.309 221.286 221.286ZM376.663 370.705L376.668 370.694L376.673 370.682C377.206 369.36 377.486 367.949 377.5 366.524L377.5 366.512L377.5 366.5L377.5 298.5C377.5 295.583 376.341 292.785 374.278 290.722C372.215 288.659 369.417 287.5 366.5 287.5C363.583 287.5 360.785 288.659 358.722 290.722C356.659 292.785 355.5 295.583 355.5 298.5L355.5 339.945L306.287 290.732C305.266 289.71 304.053 288.898 302.719 288.344C301.384 287.79 299.953 287.505 298.508 287.504C295.589 287.502 292.789 288.659 290.724 290.721C288.659 292.784 287.497 295.582 287.495 298.501C287.493 301.419 288.651 304.219 290.713 306.285L290.715 306.286L339.944 355.5L298.5 355.5C295.583 355.5 292.785 356.659 290.722 358.722C288.659 360.785 287.5 363.583 287.5 366.5C287.5 369.417 288.659 372.215 290.722 374.278C292.785 376.341 295.583 377.5 298.5 377.5L366.5 377.5L366.504 377.5C368.679 377.497 370.804 376.85 372.612 375.641C374.42 374.431 375.83 372.714 376.663 370.705Z" fill="black" stroke="black" stroke-width="5"/>
    <path d="M95.5 39.5L95.497 39.5C80.6511 39.5178 66.4184 45.4232 55.9208 55.9208C45.4232 66.4184 39.5178 80.6511 39.5 95.497V95.5V416.5C39.5 447.392 64.6307 472.5 95.5 472.5H416.5C447.369 472.5 472.5 447.392 472.5 416.5V95.5C472.5 64.608 447.369 39.5 416.5 39.5L95.5 39.5ZM446.1 416.5C446.1 432.817 432.817 446.1 416.5 446.1H95.5C79.1829 446.1 65.9 432.817 65.9 416.5V95.5C65.9 79.1829 79.1829 65.9 95.5 65.9H416.5C432.817 65.9 446.1 79.1829 446.1 95.5V416.5Z" fill="black" stroke="black" stroke-width="5"/>
</svg>