<svg width="201" height="200" viewBox="0 0 201 200" fill="none" xmlns="http://www.w3.org/2000/svg">
    <g clip-path="url(#clip0_39_81)">
        <path d="M100.477 0C82.3196 0.000411493 64.571 5.39346 49.4826 15.4951C34.3942 25.5968 22.6458 39.952 15.7274 56.7401C8.80896 73.5282 7.03227 91.9928 10.6226 109.792C14.213 127.591 23.0086 143.923 35.894 156.717L68.7524 187.058C77.1981 195.326 88.5375 199.969 100.356 200C112.174 200.031 123.538 195.448 132.027 187.225L165.294 156.483C178.113 143.664 186.843 127.33 190.38 109.549C193.917 91.7679 192.101 73.3373 185.164 56.5877C178.226 39.8382 166.477 25.522 151.403 15.4495C136.329 5.37704 118.607 0.000575492 100.477 0ZM153.744 144.475L120.544 175.15C115.085 180.293 107.86 183.145 100.36 183.117C92.8597 183.089 85.6563 180.184 80.2357 175L47.444 144.7C38.7228 135.979 32.287 125.241 28.7068 113.438C25.1265 101.636 24.5123 89.1321 26.9185 77.0354C29.3247 64.9386 34.6771 53.6219 42.5016 44.0878C50.3261 34.5537 60.3811 27.0963 71.776 22.3764C83.171 17.6564 95.554 15.8196 107.828 17.0284C120.103 18.2373 131.89 22.4547 142.145 29.3069C152.4 36.1591 160.807 45.4347 166.621 56.3121C172.435 67.1895 175.477 79.3329 175.477 91.6667C175.514 101.467 173.613 111.178 169.883 120.241C166.153 129.303 160.668 137.539 153.744 144.475ZM139.727 63.8583L114.727 46.5167C110.539 43.6224 105.569 42.0722 100.477 42.0722C95.3863 42.0722 90.4158 43.6224 86.2274 46.5167L61.2274 63.8583C57.91 66.1597 55.1993 69.2304 53.3272 72.8077C51.4551 76.385 50.4773 80.3625 50.4774 84.4V112.5C50.4774 118.025 52.6723 123.324 56.5793 127.231C60.4863 131.138 65.7854 133.333 71.3107 133.333H129.644C135.169 133.333 140.468 131.138 144.375 127.231C148.282 123.324 150.477 118.025 150.477 112.5V84.4C150.477 80.3625 149.5 76.385 147.628 72.8077C145.755 69.2304 143.045 66.1597 139.727 63.8583ZM133.811 112.5C133.811 113.605 133.372 114.665 132.59 115.446C131.809 116.228 130.749 116.667 129.644 116.667H117.144V100C117.144 97.7899 116.266 95.6702 114.703 94.1074C113.14 92.5446 111.021 91.6667 108.811 91.6667H92.144C89.9339 91.6667 87.8143 92.5446 86.2515 94.1074C84.6887 95.6702 83.8107 97.7899 83.8107 100V116.667H71.3107C70.2056 116.667 69.1458 116.228 68.3644 115.446C67.583 114.665 67.144 113.605 67.144 112.5V84.4C67.1436 83.0537 67.4693 81.7273 68.0933 80.5343C68.7174 79.3414 69.6212 78.3174 70.7274 77.55L95.7274 60.2083C97.125 59.2473 98.7812 58.7328 100.477 58.7328C102.174 58.7328 103.83 59.2473 105.227 60.2083L130.227 77.55C131.334 78.3174 132.237 79.3414 132.861 80.5343C133.485 81.7273 133.811 83.0537 133.811 84.4V112.5Z" fill="black"/>
    </g>
    <defs>
        <clipPath id="clip0_39_81">
            <rect width="200" height="200" fill="white" transform="translate(0.477295)"/>
        </clipPath>
    </defs>
</svg>