<svg width="512" height="512" viewBox="0 0 512 512" fill="none" xmlns="http://www.w3.org/2000/svg">
    <g clip-path="url(#clip0_263_10)">
        <path d="M347.333 301.557L177.967 157L6.00015 301.557V508H347.333V301.557ZM316.5 477.5H35.5V318.325L179.266 196.5C177.967 196.5 180.288 195.697 179.266 196.5C178.244 195.697 180.566 196.5 179.266 196.5L316.5 318.325V477.5ZM518 60V508H390V475H480.5L480.248 53.7516C480.248 48.0937 478.001 42.6674 474 38.6667C469.999 34.6659 464.573 32.4183 458.915 32.4183L273 31.5C267.342 31.5 261.916 33.7476 257.915 37.7484C253.914 41.7492 251.667 47.1754 251.667 52.8333V166.197L219.334 132.811V60L219.355 58.8907C219.662 42.1188 226.535 26.1364 238.498 14.3771C250.461 2.61771 266.559 -3.98047 283.333 -4H454C489.285 -4 518 24.7147 518 60Z" fill="black"/>
        <path d="M206 398L147 398L147 339L206 339L206 398Z" fill="black"/>
        <path d="M342.5 108L342.5 140L310.5 140L310.5 108L342.5 108Z" fill="black"/>
        <path d="M342.5 194L342.5 226L310.5 226L310.5 194L342.5 194Z" fill="black"/>
        <path d="M428 108L428 140L396 140L396 108L428 108Z" fill="black"/>
        <path d="M428 194L428 226L396 226L396 194L428 194Z" fill="black"/>
        <path d="M428 279L428 311L396 311L396 279L428 279Z" fill="black"/>
        <path d="M428 364L428 396L396 396L396 364L428 364Z" fill="black"/>
    </g>
    <defs>
        <clipPath id="clip0_263_10">
            <rect width="512" height="512" fill="white"/>
        </clipPath>
    </defs>
</svg>