<svg xmlns="http://www.w3.org/2000/svg" version="1.1" xmlns:xlink="http://www.w3.org/1999/xlink" width="512" height="512" x="0" y="0" viewBox="0 0 24 24" style="enable-background:new 0 0 512 512" xml:space="preserve" class="">
    <g>
        <path d="M14.849 12.747 9.401 8.482a2.268 2.268 0 0 0-2.801 0l-5.449 4.264A2.986 2.986 0 0 0 0 15.109V24h16v-8.891c0-.929-.42-1.79-1.151-2.362ZM14 22H2v-6.891c0-.31.14-.597.384-.788l5.448-4.263a.272.272 0 0 1 .336 0l5.448 4.265c.244.19.384.478.384.787v6.891Zm-8-7h4v4H6v-4Zm12-2h2v2h-2v-2Zm0 4h2v2h-2v-2ZM14 5h2v2h-2V5Zm6 2h-2V5h2v2Zm-6 2h2v2h-2V9Zm4 0h2v2h-2V9Zm6-6v21h-6v-2h4V3a1 1 0 0 0-1-1h-8a1 1 0 0 0-1 1v4.978l-2-1.565V3l.001-.052A3.003 3.003 0 0 1 13 0h8c1.654 0 3 1.346 3 3Z" fill="#000000" opacity="1" data-original="#000000" class=""></path>
    </g>
</svg>