<svg width="512" height="325" viewBox="0 0 512 325" fill="none" xmlns="http://www.w3.org/2000/svg">
    <path d="M85.3326 153.601C38.2034 153.601 0 191.809 0 238.933C0 286.063 38.2034 324.266 85.3326 324.266C132.462 324.266 170.665 286.063 170.665 238.933C170.615 191.83 132.44 153.654 85.3326 153.601ZM85.3326 307.2C47.6284 307.2 17.0665 276.638 17.0665 238.933C17.0665 201.234 47.6284 170.667 85.3326 170.667C123.037 170.667 153.599 201.234 153.599 238.933C153.556 276.621 123.016 307.157 85.3326 307.2Z" fill="black"/>
    <path d="M85.3326 204.8C66.4827 204.8 51.1996 220.083 51.1996 238.933C51.1996 257.788 66.4827 273.067 85.3326 273.067C104.183 273.067 119.466 257.788 119.466 238.933C119.466 220.083 104.183 204.8 85.3326 204.8ZM85.3326 256C75.9076 256 68.2661 248.363 68.2661 238.933C68.2661 229.508 75.9076 221.867 85.3326 221.867C94.7576 221.867 102.399 229.508 102.399 238.933C102.399 248.363 94.7576 256 85.3326 256Z" fill="black"/>
    <path d="M426.663 153.601C416.662 153.621 406.744 155.413 397.367 158.891L389.98 143.534C400.651 139.423 411.931 137.115 423.359 136.705C424.163 136.705 424.947 136.588 425.759 136.58C442.698 136.397 459.415 140.438 474.4 148.338C476.401 149.367 478.726 149.564 480.871 148.887C483.016 148.21 484.807 146.713 485.854 144.722C486.901 142.731 487.12 140.407 486.462 138.255C485.804 136.104 484.323 134.299 482.342 133.234C465.313 124.272 446.36 119.586 427.117 119.581C426.954 119.581 426.825 119.489 426.663 119.489H425.81C424.292 119.489 422.78 119.651 421.264 119.717C407.985 120.29 394.897 123.09 382.546 128.001L368.584 98.9304C376.35 101.264 384.42 102.434 392.53 102.401C397.243 102.401 401.063 98.5848 401.063 93.868V25.6019C401.063 23.3388 400.164 21.1683 398.564 19.568C396.964 17.9677 394.793 17.0687 392.53 17.0687C382.656 16.5602 372.794 18.2919 363.684 22.134C354.574 25.9762 346.451 31.8292 339.922 39.2551L323.411 4.84476C322.715 3.3971 321.626 2.17483 320.268 1.31825C318.909 0.461678 317.337 0.00551734 315.731 0.00213623L264.531 0.00213623C262.268 0.00213623 260.097 0.901174 258.497 2.50147C256.897 4.10177 255.998 6.27224 255.998 8.5354C255.998 10.7986 256.897 12.969 258.497 14.5693C260.097 16.1696 262.268 17.0687 264.531 17.0687H310.364L322.652 42.6684H252.994C241.82 42.682 230.898 45.9897 221.594 52.1778C212.291 58.366 205.018 67.1598 200.685 77.4596C199.247 77.0474 197.761 76.8262 196.265 76.8015H59.7328C40.8828 76.8015 25.5998 92.0846 25.5998 110.935C25.6424 119.881 32.5832 127.276 41.5036 127.884C30.8426 132.049 20.8404 137.734 11.8079 144.764C10.925 145.454 10.1868 146.311 9.63529 147.287C9.08379 148.262 8.72984 149.337 8.59365 150.449C8.45746 151.561 8.54169 152.69 8.84154 153.769C9.14138 154.849 9.65098 155.859 10.3412 156.742C11.736 158.526 13.782 159.682 16.0294 159.957C18.2768 160.232 20.5414 159.603 22.3251 158.209C53.1782 134.126 95.0658 129.734 130.244 146.905C165.419 164.071 187.736 199.792 187.732 238.933V250.176C187.229 253.396 187.391 256.684 188.207 259.839C189.023 262.994 190.477 265.949 192.478 268.52C194.116 270.074 196.053 271.278 198.171 272.06C200.289 272.841 202.544 273.184 204.798 273.067H298.664C302.047 273.143 305.41 272.533 308.55 271.273C311.691 270.014 314.543 268.131 316.936 265.739C319.329 263.346 321.211 260.493 322.471 257.353C323.73 254.213 324.34 250.849 324.264 247.467V238.933C324.248 222.032 328.442 205.393 336.468 190.518C337.031 189.467 337.676 188.497 338.277 187.472C345.801 174.58 356.035 163.475 368.271 154.926C368.705 154.626 369.122 154.285 369.534 153.998C370.53 153.321 371.597 152.759 372.613 152.126C373.272 151.717 373.942 151.326 374.609 150.921L382.018 166.351C345.877 188.722 331.759 234.317 348.947 273.196C366.13 312.07 409.351 332.325 450.221 320.653C491.091 308.983 517.101 268.963 511.167 226.871C505.229 184.784 469.167 153.517 426.663 153.601ZM349.864 59.735C349.864 47.6017 364.788 37.1218 383.997 34.677V84.7972C373.606 83.8424 363.791 79.5975 355.98 72.6799L349.905 60.0262C349.905 59.927 349.864 59.831 349.864 59.735ZM252.994 59.735H327.521L353.121 110.935H224.87C218.499 110.93 213.337 105.768 213.333 99.4008C213.357 77.5055 231.098 59.7595 252.994 59.735ZM59.7328 93.868H196.265V110.935H42.6663C42.6663 101.51 50.3078 93.868 59.7328 93.868ZM307.197 247.467C307.263 248.605 307.088 249.744 306.682 250.809C306.277 251.874 305.651 252.841 304.845 253.647C304.039 254.453 303.071 255.08 302.006 255.485C300.941 255.891 299.802 256.066 298.664 256H204.864C204.724 254.509 204.757 252.204 204.774 250.387L204.798 238.933C204.877 190.022 175.044 146.025 129.57 128.001H196.265C198.55 127.999 200.812 127.537 202.915 126.641C205.017 125.745 206.918 124.435 208.503 122.788C213.288 126.175 219.006 127.996 224.868 128.001H363.609L367.193 135.468C366.443 135.905 365.71 136.376 364.968 136.826C363.26 137.843 361.554 138.797 359.927 139.889L359.763 140.017C357.201 141.726 354.71 143.618 352.272 145.555C351.497 145.277 350.686 145.113 349.864 145.068H238.931C235.517 145.074 232.139 145.761 228.994 147.089C225.849 148.417 223 150.359 220.615 152.801C218.23 155.245 216.358 158.14 215.107 161.316C213.857 164.493 213.253 167.888 213.332 171.301V178.571C213.253 181.985 213.857 185.379 215.107 188.556C216.358 191.733 218.23 194.628 220.615 197.071C223 199.514 225.848 201.456 228.994 202.783C232.139 204.11 235.517 204.796 238.931 204.8H312.231C310.588 210.391 309.362 216.095 308.564 221.867H255.998C253.735 221.867 251.564 222.766 249.964 224.366C248.364 225.967 247.465 228.137 247.465 230.4C247.465 232.663 248.364 234.834 249.964 236.434C251.564 238.034 253.735 238.933 255.998 238.933H307.197V247.467ZM321.431 182.471C321.285 182.733 321.106 182.983 320.959 183.255C320.885 183.401 320.893 183.563 320.826 183.717C320.143 185.029 319.527 186.396 318.889 187.734H238.931C237.761 187.718 236.607 187.466 235.537 186.991C234.467 186.517 233.505 185.832 232.708 184.975C231.91 184.119 231.294 183.11 230.898 182.01C230.501 180.909 230.331 179.739 230.398 178.571V171.301C230.332 170.133 230.502 168.963 230.899 167.863C231.297 166.763 231.912 165.754 232.709 164.897C233.507 164.041 234.469 163.355 235.538 162.88C236.607 162.405 237.761 162.151 238.931 162.134H335.214C330.881 167.349 326.998 172.922 323.606 178.792C322.889 180.055 322.106 181.209 321.43 182.472L321.431 182.471ZM426.663 307.2C396.425 307.245 369.772 287.383 361.168 258.396C352.563 229.408 364.067 198.221 389.435 181.763L404.501 213.167C392.034 224.246 389.722 242.855 399.093 256.65C408.467 270.446 426.617 275.154 441.513 267.646C456.404 260.142 463.425 242.754 457.913 227.013C452.4 211.271 436.068 202.059 419.743 205.484L404.775 174.306C430.418 165.584 458.792 172.847 477.087 192.822C495.388 212.792 500.146 241.692 489.22 266.475C478.291 291.258 453.751 307.237 426.663 307.2ZM426.663 221.867C436.088 221.867 443.73 229.508 443.73 238.933C443.73 248.363 436.088 256 426.663 256C417.238 256 409.597 248.363 409.597 238.933C409.61 235.227 410.846 231.628 413.113 228.696C414.562 229.783 416.319 230.38 418.13 230.4C419.247 230.401 420.353 230.181 421.384 229.752C422.416 229.322 423.352 228.693 424.138 227.9C424.924 227.105 425.545 226.163 425.965 225.128C426.386 224.093 426.597 222.984 426.588 221.867H426.663Z" fill="black"/>
</svg>