<svg xmlns="http://www.w3.org/2000/svg" version="1.1" xmlns:xlink="http://www.w3.org/1999/xlink" width="512" height="512" x="0" y="0" viewBox="0 0 512 512" style="enable-background:new 0 0 512 512" xml:space="preserve" class="">
    <g>
        <path d="M293.97 118.205a6.001 6.001 0 0 0 5.518.693l24.296-9.058a6 6 0 0 0 3.904-5.622V61.387a6.001 6.001 0 0 0-8.365-5.514L295.02 66.3a6 6 0 0 0-3.635 5.515l.007 41.463c0 1.966.964 3.807 2.578 4.928zm21.718-47.715v29.562l-12.297 4.585-.005-28.869 12.302-5.277zm9.495 55.124a5.993 5.993 0 0 0-5.422-.805l-24.296 8.239a5.997 5.997 0 0 0-4.073 5.682v44.271a5.999 5.999 0 0 0 7.62 5.777l24.296-6.815a6.001 6.001 0 0 0 4.38-5.777v-45.695a6 6 0 0 0-2.505-4.877zm-9.495 46.023-12.296 3.449V143.03l12.296-4.17v32.776zm9.905 98.271a6.007 6.007 0 0 0-4.821-1.375l-24.296 3.753a6 6 0 0 0-5.084 5.93v44.271a6 6 0 0 0 6.572 5.973l24.296-2.329a6 6 0 0 0 5.428-5.973v-45.695a6.003 6.003 0 0 0-2.095-4.555zm-9.905 44.798-12.296 1.179v-32.524l12.296-1.899v33.245zm9.699-116.935a5.996 5.996 0 0 0-5.137-1.102l-24.296 5.995a5.999 5.999 0 0 0-4.562 5.825v44.236a5.997 5.997 0 0 0 7.109 5.896l24.296-4.572a6 6 0 0 0 4.891-5.896v-45.659a6.002 6.002 0 0 0-2.301-4.724zm-9.699 45.406-12.296 2.314v-32.303l12.296-3.034v33.022zm-65.527 22.369a5.999 5.999 0 0 0 4.938 1.279l21.568-4.052a6 6 0 0 0 4.893-5.896v-43.026a5.999 5.999 0 0 0-7.436-5.826l-21.568 5.316a5.998 5.998 0 0 0-4.564 5.825v41.762c0 1.785.795 3.478 2.169 4.617zm9.831-41.679 9.568-2.358V251.9l-9.568 1.797v-29.829zm-6 108.749c.189 0 .381-.009.572-.027l21.562-2.064a6 6 0 0 0 5.428-5.973v-42.923a6.002 6.002 0 0 0-6.914-5.93l-21.562 3.325a6 6 0 0 0-5.086 5.93v41.662a6.002 6.002 0 0 0 6 6zm6-42.517 9.562-1.475v30.474l-9.562.916zm-9.626-90.11a5.997 5.997 0 0 0 5.244.997l21.568-6.042a6 6 0 0 0 4.382-5.777v-43.025a6 6 0 0 0-7.925-5.683l-21.568 7.305a5.999 5.999 0 0 0-4.075 5.683v41.763a6 6 0 0 0 2.374 4.78zm9.626-42.24 9.568-3.24v30.108l-9.568 2.68zm-9.427-23.402a5.996 5.996 0 0 0 5.513.701l21.568-7.998a6 6 0 0 0 3.914-5.625l.007-40.265a6.002 6.002 0 0 0-8.364-5.516l-21.575 9.248a6 6 0 0 0-3.636 5.515v39.015c0 1.964.961 3.804 2.573 4.925zm9.427-39.983 9.573-4.104-.004 26.989-9.569 3.549V94.363zM74.968 237.604a5.996 5.996 0 0 0 5.464.757l17.555-6.208a6 6 0 0 0 4-5.655l.005-32.739a5.996 5.996 0 0 0-2.682-4.999 5.994 5.994 0 0 0-5.647-.531l-17.56 7.396a5.998 5.998 0 0 0-3.671 5.529v31.551c0 1.948.945 3.774 2.536 4.899zm9.464-32.467 5.559-2.342-.003 19.459-5.556 1.964zm26.033 19.88a5.994 5.994 0 0 0 5.471.75l20.218-7.196a5.998 5.998 0 0 0 3.988-5.652v-35.271a5.998 5.998 0 0 0-8.341-5.524l-20.218 8.567a5.997 5.997 0 0 0-3.659 5.524v33.9a6 6 0 0 0 2.541 4.902zm9.459-34.829 8.218-3.482v21.979l-8.218 2.926zm18.008 98.968a6.004 6.004 0 0 0-5.003-1.225l-20.211 4.171a6 6 0 0 0-4.787 5.876v36.178a5.997 5.997 0 0 0 6.819 5.943l20.211-2.785a6 6 0 0 0 5.181-5.943v-37.563a6 6 0 0 0-2.21-4.651zm-9.79 36.985-8.211 1.131v-24.406l8.211-1.694v24.97zm-48.896 18.846 17.549-2.403a6 6 0 0 0 5.186-5.944v-34.981a5.997 5.997 0 0 0-2.208-4.649 5.984 5.984 0 0 0-4.999-1.228l-17.549 3.604a6 6 0 0 0-4.793 5.877v33.78a6 6 0 0 0 6.814 5.944zm5.186-34.832 5.549-1.14v22.39l-5.549.76zm-9.701-19.538a5.993 5.993 0 0 0 5.134 1.104l17.549-4.316a5.998 5.998 0 0 0 4.567-5.826v-34.981a6 6 0 0 0-7.8-5.724l-17.549 5.518a6 6 0 0 0-4.2 5.724v33.78c0 1.844.848 3.585 2.299 4.722zm9.701-34.099 5.549-1.745v22.103l-5.549 1.365zm53.256-26.81a5.997 5.997 0 0 0-5.354-.881l-20.211 6.388a6 6 0 0 0-4.191 5.721v36.199a5.999 5.999 0 0 0 7.436 5.826l20.211-4.979a6 6 0 0 0 4.564-5.826v-37.607c0-1.912-.911-3.71-2.454-4.84zm-9.546 37.746-8.211 2.023v-24.146l8.211-2.596v24.718zm372.304 202.535h-35.498V59.763a6 6 0 0 0-3.642-5.517L347.235 5.483a5.991 5.991 0 0 0-4.717 0L228.446 54.246a5.998 5.998 0 0 0-3.642 5.517v85.121l-50.608-21.634a5.991 5.991 0 0 0-4.717 0L50.694 174.027a5.998 5.998 0 0 0-3.642 5.517v290.445H11.554a6 6 0 0 0-6 6V501a6 6 0 0 0 6 6h488.892a6 6 0 0 0 6-6v-25.011a6 6 0 0 0-6-6zm-47.498 0H350.877V20.09l102.071 43.632zM338.876 20.09v449.899h-22.729V374.22l3.167-.301a5.998 5.998 0 0 0 5.404-6.541 5.992 5.992 0 0 0-6.541-5.404l-61.812 5.883a6 6 0 0 0 1.137 11.946l2.031-.193v90.381h-22.729V63.723l102.072-43.632zm-34.729 355.272v94.627h-32.613v-91.523zm-79.343 94.627h-46.967V137.857l46.967 20.077zM59.052 183.504l106.785-45.647v332.132h-25.086V393.22l3.168-.302a5.998 5.998 0 0 0 5.404-6.541c-.313-3.299-3.246-5.727-6.541-5.404l-61.812 5.884a6 6 0 0 0 1.137 11.946l2.031-.193v71.38H59.052zm69.699 210.859v75.626H96.138v-72.522zM494.445 495H17.554v-13.011h476.892V495zm-98.534-49.997V75.598a6 6 0 0 1 12 0v369.405a6 6 0 0 1-12 0zm28.519 0V87.789a6 6 0 0 1 12 0v357.214a6 6 0 0 1-12 0zm-57.036 0V63.408a6 6 0 0 1 12 0v381.595a6 6 0 0 1-12 0z" fill="#000000" opacity="1" data-original="#000000"></path>
    </g>
</svg>