<svg width="196" height="196" viewBox="0 0 196 196" fill="none" xmlns="http://www.w3.org/2000/svg">
<path d="M98 45.9375C85.3324 45.9375 75.0312 56.2386 75.0312 68.9062C75.0312 81.6344 85.314 91.875 98 91.875C110.913 91.875 120.969 81.4414 120.969 68.9062C120.969 56.2386 110.668 45.9375 98 45.9375Z" fill="black"/>
<path d="M98 0C60.0028 0 29.0938 30.909 29.0938 68.9062C29.0938 81.742 32.6489 94.2695 39.3726 105.137L94.075 193.283C96.3432 196.946 101.691 196.89 103.888 193.205L157.194 104.206C163.542 93.5686 166.906 81.3607 166.906 68.9062C166.906 30.909 135.997 0 98 0ZM98 103.436C78.7273 103.436 63.4703 87.7487 63.4703 68.9062C63.4703 49.9076 79.0014 34.3766 98 34.3766C116.999 34.3766 132.53 49.9076 132.53 68.9062C132.53 87.5825 117.478 103.436 98 103.436Z" fill="black"/>
</svg>
