<svg xmlns="http://www.w3.org/2000/svg" version="1.1" xmlns:xlink="http://www.w3.org/1999/xlink" width="512" height="512" x="0" y="0" viewBox="0 0 512 512" style="enable-background:new 0 0 512 512" xml:space="preserve" class=""><g><path fill="#f94b4a" fill-rule="evenodd" d="M255.95 21.36c125.01 0 213.28 124.24 157.55 240.86-34.64 72.54-108.09 166.2-147.8 222.49-2.72 3.83-6.75 5.92-11.45 5.92-4.71 0-8.73-2.1-11.45-5.95-39.29-55.9-110.35-147.32-144.34-220.05C43.41 146.82 128.87 21.36 255.95 21.36zm.06 40.79c75.49 0 136.69 61.2 136.69 136.69 0 75.51-61.2 136.72-136.69 136.72-75.51 0-136.71-61.2-136.71-136.72-.01-75.49 61.19-136.69 136.71-136.69z" clip-rule="evenodd" opacity="1" data-original="#f94b4a"></path><path fill="#dc3c45" fill-rule="evenodd" d="M256.01 62.15c75.49 0 136.69 61.2 136.69 136.69 0 75.51-61.2 136.72-136.69 136.72v155c3.94-.48 7.31-2.49 9.69-5.84 39.71-56.3 113.16-149.95 147.8-222.49C469.2 145.6 380.99 21.39 256.01 21.36z" clip-rule="evenodd" opacity="1" data-original="#dc3c45" class=""></path><path fill="#f94b4a" d="M160.79 198.16c-2.47 2.21-6.24 1.98-8.45-.48-2.21-2.47-1.98-6.26.48-8.48l99.64-88.47c2.32-2.1 5.87-2.01 8.11.11l98.62 88.95c2.47 2.21 2.66 6.01.45 8.48s-6.01 2.66-8.48.43l-94.76-85.46z" opacity="1" data-original="#f94b4a"></path><g fill-rule="evenodd" clip-rule="evenodd"><path fill="#f94b4a" d="m324.29 207.65-67.35-60.75a.995.995 0 0 0-1.33 0l-67.8 60.24a.96.96 0 0 0-.34.77v90.37h45.5v-64.01c0-3.71 3.06-6.77 6.77-6.77h33.11c3.71 0 6.75 3.06 6.75 6.77v64.01h45.52l-.48-89.89c-.01-.28-.12-.54-.35-.74z" opacity="1" data-original="#f94b4a"></path><path fill="#dc3c45" d="m256.4 113.23 94.76 85.46c2.47 2.24 6.26 2.04 8.48-.43s2.01-6.26-.45-8.48l-98.62-88.95a6.037 6.037 0 0 0-4.28-1.64v14.14zM256.29 146.65v80.84h16.55c3.71 0 6.75 3.06 6.75 6.77v64.01h45.52l-.48-89.89c0-.28-.11-.54-.34-.74l-67.35-60.75c-.17-.15-.42-.24-.65-.24z" opacity="1" data-original="#dc3c45" class=""></path></g></g></svg>