<svg xmlns="http://www.w3.org/2000/svg" version="1.1" xmlns:xlink="http://www.w3.org/1999/xlink" width="512" height="512" x="0" y="0" viewBox="0 0 512 512" style="enable-background:new 0 0 512 512" xml:space="preserve">
    <g>
        <path d="M396.278 257.037v-59.479l20.217 14.498a39.57 39.57 0 0 0 23.121 7.43c12.408-.001 24.646-5.774 32.407-16.607 12.777-17.839 8.66-42.748-9.174-55.524L268.36 7.884c-13.946-10.399-32.806-10.581-46.966-.436L26.302 147.351C8.463 160.13 4.347 185.04 17.125 202.878c12.78 17.839 37.688 21.955 55.527 9.178l.004-.003 20.214-14.495v157.121c0 20.539 16.711 37.249 37.251 37.249h115.557C250.015 458.865 305.844 512 373.859 512c70.834 0 128.462-57.628 128.462-128.463 0-63.188-45.859-115.864-106.043-126.5zM61.002 195.799c-8.875 6.352-21.263 4.304-27.617-4.568-6.357-8.874-4.31-21.264 4.567-27.624L233.045 23.705c7.061-5.057 16.468-4.958 23.407.248l.174.127 194.573 139.53c8.873 6.357 10.921 18.748 4.564 27.622s-18.748 10.92-27.618 4.568L250.401 68.337c-1.741-1.249-3.784-1.874-5.827-1.874s-4.086.625-5.827 1.874zm51.868 158.879V183.215L244.574 88.77l131.704 94.446v71.89c-.805-.015-1.61-.031-2.419-.031-27.813 0-53.589 8.888-74.641 23.969V262.96c0-25.287-20.572-45.858-45.859-45.858h-17.571c-25.286 0-45.858 20.572-45.858 45.858v108.967h-59.809c-9.513 0-17.251-7.739-17.251-17.249zm166.349-57.911c-18.532 20.196-30.696 46.319-33.292 75.16H209.93V262.96c0-14.258 11.6-25.858 25.858-25.858h17.571c14.259 0 25.859 11.6 25.859 25.858v33.807zM373.859 492c-59.807 0-108.463-48.656-108.463-108.463 0-59.806 48.656-108.462 108.463-108.462 59.806 0 108.462 48.656 108.462 108.462 0 59.807-48.656 108.463-108.462 108.463zm41.848-79.499c0 17.967-13.488 33.095-31.651 37.287l.178 7.398c.133 5.521-4.235 10.105-9.756 10.238l-.246.003c-5.411 0-9.861-4.319-9.992-9.759l-.186-7.698c-10.396-2.198-17.2-7.844-23.704-13.979-4.018-3.79-4.202-10.119-.412-14.137 3.789-4.017 10.118-4.201 14.137-.412 7.43 7.01 11.536 9.498 19.785 9.498 12.047 0 21.848-8.272 21.848-18.44s-9.801-18.44-21.848-18.44c-23.075 0-41.849-17.244-41.849-38.44 0-17.975 13.499-33.107 31.675-37.292l-.201-8.442c-.132-5.521 4.237-10.104 9.758-10.236a9.984 9.984 0 0 1 10.236 9.758l.22 9.17c9.927 2.502 21.511 8.245 26.772 16.252 3.033 4.615 1.751 10.815-2.864 13.849-4.617 3.034-10.817 1.75-13.849-2.864-2.387-3.631-13.917-8.634-19.898-8.634-12.048 0-21.849 8.272-21.849 18.44s9.801 18.44 21.849 18.44c23.075 0 41.847 17.244 41.847 38.44z" fill="#000000" opacity="1" data-original="#000000"></path>
    </g>
</svg>