<svg xmlns="http://www.w3.org/2000/svg" version="1.1" xmlns:xlink="http://www.w3.org/1999/xlink" width="512" height="512" x="0" y="0" viewBox="0 0 512 512" style="enable-background:new 0 0 512 512" xml:space="preserve" class="">
    <g>
        <path d="M293.008 427.997h75.064v61.191h-75.064zM76.697 427.997h55.064v61.191H76.697z" style="stroke-width:20;stroke-linecap:round;stroke-linejoin:round;stroke-miterlimit:10;" fill="none" stroke="#000000" stroke-width="20" stroke-linecap="round" stroke-linejoin="round" stroke-miterlimit="10" data-original="#000000" class=""></path>
        <path d="M482.376 132.351v356.837H178.705V132.351" style="stroke-width:20;stroke-linecap:round;stroke-linejoin:round;stroke-miterlimit:10;" fill="none" stroke="#000000" stroke-width="20" stroke-linecap="round" stroke-linejoin="round" stroke-miterlimit="10" data-original="#000000" class=""></path>
        <path d="M159.08 144.244 330.54 22.812 502 144.244M29.754 187.649h148.951v301.539H29.754zM10 489.188h491.743M230.572 339.738h199.872v43.464H230.572zM230.572 252.494h199.872v43.464H230.572zM230.572 165.25h199.872v43.464H230.572zM76.697 378.66h55.064M76.697 333.995h55.064M76.697 244.667h55.064M76.697 289.331h55.064" style="stroke-width:20;stroke-linecap:round;stroke-linejoin:round;stroke-miterlimit:10;" fill="none" stroke="#000000" stroke-width="20" stroke-linecap="round" stroke-linejoin="round" stroke-miterlimit="10" data-original="#000000" class=""></path>
    </g>
</svg>