<svg xmlns="http://www.w3.org/2000/svg" version="1.1" xmlns:xlink="http://www.w3.org/1999/xlink" width="512" height="512" x="0" y="0" viewBox="0 0 24 24" style="enable-background:new 0 0 512 512" xml:space="preserve" class="">
    <g>
        <path d="M14 13h2v2h-2v-2Zm4 2h2v-2h-2v2Zm-4 4h2v-2h-2v2Zm4 0h2v-2h-2v2ZM14 7h2V5h-2v2Zm4 0h2V5h-2v2Zm-4 4h2V9h-2v2Zm4 0h2V9h-2v2Zm6-8v21H0V8.829c0-.801.312-1.555.879-2.122L3.586 4c1.289-1.29 3.539-1.29 4.828 0L10 5.586V3c0-1.654 1.346-3 3-3h8c1.654 0 3 1.346 3 3ZM10 8.829a.996.996 0 0 0-.293-.708L7 5.414c-.526-.526-1.474-.526-2 0L2.293 8.121A.994.994 0 0 0 2 8.829V22h8V8.829ZM22 3c0-.551-.449-1-1-1h-8c-.551 0-1 .449-1 1v19h10V3ZM5 15h2v-2H5v2Zm0-4h2V9H5v2Zm0 8h2v-2H5v2Z" fill="#000000" opacity="1" data-original="#000000" class=""></path>
    </g>
</svg>