<svg xmlns="http://www.w3.org/2000/svg" version="1.1" xmlns:xlink="http://www.w3.org/1999/xlink" width="512" height="512" x="0" y="0" viewBox="0 0 512 512" style="enable-background:new 0 0 512 512" xml:space="preserve" class="">
    <g>
        <path fill="#ffffff" d="M256 84.11c-94.93 0-171.89 76.96-171.89 171.89 0 37.95 12.31 73.03 33.14 101.47L95.32 422.3l68.31-21.33C190.31 418 222 427.88 256 427.88c94.93 0 171.89-76.96 171.89-171.89S350.93 84.11 256 84.11z" opacity="1" data-original="#4caf50" class=""></path>
        <path fill="#54cc61" d="M241.69 284.66c-10.44-7.94-35.25-37.57-34.57-43.56s18.33-18.65 18.16-25.73-15.91-52.69-30.21-52.83-40.57 16.16-38.76 48.47 28.68 75.88 69.34 106.74 77.87 42.96 109.1 30.5c27.64-11.03 28.05-39.48 24.23-44.38-3.81-4.9-42.02-23.87-49.01-22.51s-14.3 23.46-25.32 24.96c-11.02 1.48-32.52-13.72-42.96-21.66z" opacity="1" data-original="#ffffff" class=""></path>
    </g>
</svg>